<svg xmlns="http://www.w3.org/2000/svg" width="2.1in" height="2.1in" viewBox="0 0 152.3 152.3"><path fill="#cc6c5a" d="M0 18.4v115.5a18.4 18.4 0 0 0 18.4 18.4h62.8V93.4H61.7v-23h19.6c0-5.5-.2-10.8.1-16s.7-9.2 2.1-13.4c3.6-11.5 14.1-18.1 27.6-17.9 4.9 0 9.7.4 14.6.5 2.1.1 2.9 1 2.8 3.2-.1 5.7 0 11.5 0 17.6h-12.3c-8.1.1-11.1 3.1-11.2 11.2v14.8h22.7c-1 7.7-1.9 15.1-2.9 22.8H105v55.3c0 1.3-.2 2.5-.3 3.8h29.2a18.4 18.4 0 0 0 18.4-18.4V18.4A18.4 18.4 0 0 0 133.9 0H18.4A18.4 18.4 0 0 0 0 18.4z"/></svg>