<svg id="Layer_1" data-name="Layer 1" xmlns="http://www.w3.org/2000/svg" width="2.1in" height="2.1in" viewBox="0 0 152.3 152.3"><title>icons</title><path d="M0,18.4V133.9a18.4,18.4,0,0,0,18.4,18.4H81.2V93.4H61.7v-23H81.3c0-5.5-.2-10.8.1-16s.7-9.2,2.1-13.4c3.6-11.5,14.1-18.1,27.6-17.9,4.9,0,9.7.4,14.6.5,2.1.1,2.9,1,2.8,3.2-.1,5.7,0,11.5,0,17.6H116.2c-8.1.1-11.1,3.1-11.2,11.2V70.4h22.7c-1,7.7-1.9,15.1-2.9,22.8H105v55.3c0,1.3-.2,2.5-.3,3.8h29.2a18.4,18.4,0,0,0,18.4-18.4V18.4A18.4,18.4,0,0,0,133.9,0H18.4A18.4,18.4,0,0,0,0,18.4Z" fill="#fff"/></svg>