<svg xmlns="http://www.w3.org/2000/svg"><symbol id="facebook" viewBox="0 0 152.3 152.3"><path fill="#cc6c5a" d="M0 18.4v115.5a18.4 18.4 0 0 0 18.4 18.4h62.8V93.4H61.7v-23h19.6c0-5.5-.2-10.8.1-16s.7-9.2 2.1-13.4c3.6-11.5 14.1-18.1 27.6-17.9 4.9 0 9.7.4 14.6.5 2.1.1 2.9 1 2.8 3.2-.1 5.7 0 11.5 0 17.6h-12.3c-8.1.1-11.1 3.1-11.2 11.2v14.8h22.7c-1 7.7-1.9 15.1-2.9 22.8H105v55.3c0 1.3-.2 2.5-.3 3.8h29.2a18.4 18.4 0 0 0 18.4-18.4V18.4A18.4 18.4 0 0 0 133.9 0H18.4A18.4 18.4 0 0 0 0 18.4z"/></symbol><symbol id="nav" viewBox="0 0 129.2 131.5"><path fill="#cc6c5a" d="M0 100.4h129.2v30.34H0zm0-50.5h129.2v30.34H0zM0-.7h129.2v30.34H0z"/></symbol><symbol id="facebook" viewBox="0 0 152.3 152.3"><path fill="#cc6c5a" d="M0 18.4v115.5a18.4 18.4 0 0 0 18.4 18.4h62.8V93.4H61.7v-23h19.6c0-5.5-.2-10.8.1-16s.7-9.2 2.1-13.4c3.6-11.5 14.1-18.1 27.6-17.9 4.9 0 9.7.4 14.6.5 2.1.1 2.9 1 2.8 3.2-.1 5.7 0 11.5 0 17.6h-12.3c-8.1.1-11.1 3.1-11.2 11.2v14.8h22.7c-1 7.7-1.9 15.1-2.9 22.8H105v55.3c0 1.3-.2 2.5-.3 3.8h29.2a18.4 18.4 0 0 0 18.4-18.4V18.4A18.4 18.4 0 0 0 133.9 0H18.4A18.4 18.4 0 0 0 0 18.4z"/></symbol><symbol id="heart" viewBox="0 0 119.2 136.4"><path fill="#cc6c5a" d="M63.4 135.7S16.1 64.6 4.9 37.5 3.2-3.5 19.5 1.3s43.9 39.6 43.9 39.6l16.7-23.7c3.9-5.6 14.4-16.1 21-17.5s14.1-.2 17.5 9.7c6.8 19.7-41.8 108.2-55.2 126.3z"/></symbol><symbol id="nav" viewBox="0 0 129.2 131.5"><path fill="#cc6c5a" d="M0 100.4h129.2v30.34H0zm0-50.5h129.2v30.34H0zM0-.7h129.2v30.34H0z"/></symbol><symbol id="facebook" viewBox="0 0 152.3 152.3"><path fill="#cc6c5a" d="M0 18.4v115.5a18.4 18.4 0 0 0 18.4 18.4h62.8V93.4H61.7v-23h19.6c0-5.5-.2-10.8.1-16s.7-9.2 2.1-13.4c3.6-11.5 14.1-18.1 27.6-17.9 4.9 0 9.7.4 14.6.5 2.1.1 2.9 1 2.8 3.2-.1 5.7 0 11.5 0 17.6h-12.3c-8.1.1-11.1 3.1-11.2 11.2v14.8h22.7c-1 7.7-1.9 15.1-2.9 22.8H105v55.3c0 1.3-.2 2.5-.3 3.8h29.2a18.4 18.4 0 0 0 18.4-18.4V18.4A18.4 18.4 0 0 0 133.9 0H18.4A18.4 18.4 0 0 0 0 18.4z"/></symbol><symbol id="nav" viewBox="0 0 129.2 131.5"><path fill="#cc6c5a" d="M0 100.4h129.2v30.34H0zm0-50.5h129.2v30.34H0zM0-.7h129.2v30.34H0z"/></symbol><symbol id="negative-heart" viewBox="0 0 113.9 132.6"><path fill="#cc6c5a" d="M60.2 131.9l-3.9-5.7c-1.7-2.6-41.7-63-51.6-86.8-8.4-20.2-3.6-30 0-34S15.8-1 23.3 1.2c12.1 3.5 28.9 22.1 36.8 31.4L71 17C73.8 13 84.1 1.5 92.4-.2c10-2 17.6 2.2 20.8 11.6 7.2 21-39.5 102.1-49 114.9zM16.7 9.8a5.9 5.9 0 0 0-4.8 2c-2.8 3-3.8 10.9 1.7 23.9 7.7 18.7 36.2 63 46.8 79.1a541.7 541.7 0 0 0 26.3-48.2c15.2-31.4 18.9-47.5 17.4-52.1s-4.5-6.3-9.8-5.3c-3.6.8-11.8 8.2-15.4 13.4l-18.3 26-4-5.1c-.1-.1-6-7.6-13.6-15.5-12.8-13.3-19.5-16.7-22.4-17.5a12.3 12.3 0 0 0-3.9-.7z"/></symbol><symbol id="heart" viewBox="0 0 119.2 136.4"><path fill="#cc6c5a" d="M63.4 135.7S16.1 64.6 4.9 37.5 3.2-3.5 19.5 1.3s43.9 39.6 43.9 39.6l16.7-23.7c3.9-5.6 14.4-16.1 21-17.5s14.1-.2 17.5 9.7c6.8 19.7-41.8 108.2-55.2 126.3z"/></symbol><symbol id="facebook" viewBox="0 0 152.3 152.3"><path fill="#cc6c5a" d="M0 18.4v115.5a18.4 18.4 0 0 0 18.4 18.4h62.8V93.4H61.7v-23h19.6c0-5.5-.2-10.8.1-16s.7-9.2 2.1-13.4c3.6-11.5 14.1-18.1 27.6-17.9 4.9 0 9.7.4 14.6.5 2.1.1 2.9 1 2.8 3.2-.1 5.7 0 11.5 0 17.6h-12.3c-8.1.1-11.1 3.1-11.2 11.2v14.8h22.7c-1 7.7-1.9 15.1-2.9 22.8H105v55.3c0 1.3-.2 2.5-.3 3.8h29.2a18.4 18.4 0 0 0 18.4-18.4V18.4A18.4 18.4 0 0 0 133.9 0H18.4A18.4 18.4 0 0 0 0 18.4z"/></symbol><symbol id="nav" viewBox="0 0 129.2 131.5"><path fill="#cc6c5a" d="M0 100.4h129.2v30.34H0zm0-50.5h129.2v30.34H0zM0-.7h129.2v30.34H0z"/></symbol><symbol id="heart" viewBox="0 0 119.2 136.4"><path fill="#cc6c5a" d="M63.4 135.7S16.1 64.6 4.9 37.5 3.2-3.5 19.5 1.3s43.9 39.6 43.9 39.6l16.7-23.7c3.9-5.6 14.4-16.1 21-17.5s14.1-.2 17.5 9.7c6.8 19.7-41.8 108.2-55.2 126.3z"/></symbol><symbol id="negative-heart" viewBox="0 0 113.9 132.6"><path fill="#cc6c5a" d="M60.2 131.9l-3.9-5.7c-1.7-2.6-41.7-63-51.6-86.8-8.4-20.2-3.6-30 0-34S15.8-1 23.3 1.2c12.1 3.5 28.9 22.1 36.8 31.4L71 17C73.8 13 84.1 1.5 92.4-.2c10-2 17.6 2.2 20.8 11.6 7.2 21-39.5 102.1-49 114.9zM16.7 9.8a5.9 5.9 0 0 0-4.8 2c-2.8 3-3.8 10.9 1.7 23.9 7.7 18.7 36.2 63 46.8 79.1a541.7 541.7 0 0 0 26.3-48.2c15.2-31.4 18.9-47.5 17.4-52.1s-4.5-6.3-9.8-5.3c-3.6.8-11.8 8.2-15.4 13.4l-18.3 26-4-5.1c-.1-.1-6-7.6-13.6-15.5-12.8-13.3-19.5-16.7-22.4-17.5a12.3 12.3 0 0 0-3.9-.7z"/></symbol><symbol id="search" viewBox="0 0 137 150"><path fill="#cc6c5a" d="M134.4 130.3l-28.7-34.7a59.2 59.2 0 1 0-17.9 15.1l28.5 34.5a11.3 11.3 0 0 0 15.9 1.5l.7-.6a11.2 11.2 0 0 0 1.5-15.8zM22.7 58.6a36.7 36.7 0 1 1 36.6 36.7 36.6 36.6 0 0 1-36.6-36.7z"/></symbol><symbol id="facebook" viewBox="0 0 152.3 152.3"><path fill="#cc6c5a" d="M0 18.4v115.5a18.4 18.4 0 0 0 18.4 18.4h62.8V93.4H61.7v-23h19.6c0-5.5-.2-10.8.1-16s.7-9.2 2.1-13.4c3.6-11.5 14.1-18.1 27.6-17.9 4.9 0 9.7.4 14.6.5 2.1.1 2.9 1 2.8 3.2-.1 5.7 0 11.5 0 17.6h-12.3c-8.1.1-11.1 3.1-11.2 11.2v14.8h22.7c-1 7.7-1.9 15.1-2.9 22.8H105v55.3c0 1.3-.2 2.5-.3 3.8h29.2a18.4 18.4 0 0 0 18.4-18.4V18.4A18.4 18.4 0 0 0 133.9 0H18.4A18.4 18.4 0 0 0 0 18.4z"/></symbol><symbol id="nav" viewBox="0 0 129.2 131.5"><path fill="#cc6c5a" d="M0 100.4h129.2v30.34H0zm0-50.5h129.2v30.34H0zM0-.7h129.2v30.34H0z"/></symbol><symbol id="heart" viewBox="0 0 119.2 136.4"><path fill="#cc6c5a" d="M63.4 135.7S16.1 64.6 4.9 37.5 3.2-3.5 19.5 1.3s43.9 39.6 43.9 39.6l16.7-23.7c3.9-5.6 14.4-16.1 21-17.5s14.1-.2 17.5 9.7c6.8 19.7-41.8 108.2-55.2 126.3z"/></symbol><symbol id="negative-heart" viewBox="0 0 113.9 132.6"><path fill="#cc6c5a" d="M60.2 131.9l-3.9-5.7c-1.7-2.6-41.7-63-51.6-86.8-8.4-20.2-3.6-30 0-34S15.8-1 23.3 1.2c12.1 3.5 28.9 22.1 36.8 31.4L71 17C73.8 13 84.1 1.5 92.4-.2c10-2 17.6 2.2 20.8 11.6 7.2 21-39.5 102.1-49 114.9zM16.7 9.8a5.9 5.9 0 0 0-4.8 2c-2.8 3-3.8 10.9 1.7 23.9 7.7 18.7 36.2 63 46.8 79.1a541.7 541.7 0 0 0 26.3-48.2c15.2-31.4 18.9-47.5 17.4-52.1s-4.5-6.3-9.8-5.3c-3.6.8-11.8 8.2-15.4 13.4l-18.3 26-4-5.1c-.1-.1-6-7.6-13.6-15.5-12.8-13.3-19.5-16.7-22.4-17.5a12.3 12.3 0 0 0-3.9-.7z"/></symbol><symbol id="search" viewBox="0 0 137 150"><path fill="#cc6c5a" d="M134.4 130.3l-28.7-34.7a59.2 59.2 0 1 0-17.9 15.1l28.5 34.5a11.3 11.3 0 0 0 15.9 1.5l.7-.6a11.2 11.2 0 0 0 1.5-15.8zM22.7 58.6a36.7 36.7 0 1 1 36.6 36.7 36.6 36.6 0 0 1-36.6-36.7z"/></symbol><symbol id="cart" viewBox="0 0 193.2 161.4"><path fill="#cc6c5a" d="M182.3 14.1H36.8L35.4 7A9.6 9.6 0 0 0 26-.7H7.6A7.6 7.6 0 0 0 0 6.2a7.4 7.4 0 0 0 7.4 7.9h13.5l27.2 101.7a17 17 0 0 0 16.3 12.6h104.7a7.4 7.4 0 0 0 7.5-6.7 7.2 7.2 0 0 0-7.2-7.7h-98a8.3 8.3 0 0 1-7.9-5.9 2.6 2.6 0 0 1 2.1-3.3l104.9-12.3a10.8 10.8 0 0 0 9.3-8.4l13.1-56.7a10.8 10.8 0 0 0-10.6-13.3zm-5.7 25.5l-7.2 32.3a11 11 0 0 1-9.7 8.6L66.5 90.6a11.1 11.1 0 0 1-12-8.6l-9.7-42.4A11.2 11.2 0 0 1 55.7 26h110a11.2 11.2 0 0 1 10.9 13.6z"/><circle cx="64.7" cy="147.4" r="13.3" fill="#cc6c5a"/><circle cx="166.3" cy="147.4" r="13.3" fill="#cc6c5a"/></symbol><symbol id="facebook" viewBox="0 0 152.3 152.3"><path fill="#cc6c5a" d="M0 18.4v115.5a18.4 18.4 0 0 0 18.4 18.4h62.8V93.4H61.7v-23h19.6c0-5.5-.2-10.8.1-16s.7-9.2 2.1-13.4c3.6-11.5 14.1-18.1 27.6-17.9 4.9 0 9.7.4 14.6.5 2.1.1 2.9 1 2.8 3.2-.1 5.7 0 11.5 0 17.6h-12.3c-8.1.1-11.1 3.1-11.2 11.2v14.8h22.7c-1 7.7-1.9 15.1-2.9 22.8H105v55.3c0 1.3-.2 2.5-.3 3.8h29.2a18.4 18.4 0 0 0 18.4-18.4V18.4A18.4 18.4 0 0 0 133.9 0H18.4A18.4 18.4 0 0 0 0 18.4z"/></symbol><symbol id="nav" viewBox="0 0 129.2 131.5"><path fill="#cc6c5a" d="M0 100.4h129.2v30.34H0zm0-50.5h129.2v30.34H0zM0-.7h129.2v30.34H0z"/></symbol><symbol id="heart" viewBox="0 0 119.2 136.4"><path fill="#cc6c5a" d="M63.4 135.7S16.1 64.6 4.9 37.5 3.2-3.5 19.5 1.3s43.9 39.6 43.9 39.6l16.7-23.7c3.9-5.6 14.4-16.1 21-17.5s14.1-.2 17.5 9.7c6.8 19.7-41.8 108.2-55.2 126.3z"/></symbol><symbol id="negative-heart" viewBox="0 0 113.9 132.6"><path fill="#cc6c5a" d="M60.2 131.9l-3.9-5.7c-1.7-2.6-41.7-63-51.6-86.8-8.4-20.2-3.6-30 0-34S15.8-1 23.3 1.2c12.1 3.5 28.9 22.1 36.8 31.4L71 17C73.8 13 84.1 1.5 92.4-.2c10-2 17.6 2.2 20.8 11.6 7.2 21-39.5 102.1-49 114.9zM16.7 9.8a5.9 5.9 0 0 0-4.8 2c-2.8 3-3.8 10.9 1.7 23.9 7.7 18.7 36.2 63 46.8 79.1a541.7 541.7 0 0 0 26.3-48.2c15.2-31.4 18.9-47.5 17.4-52.1s-4.5-6.3-9.8-5.3c-3.6.8-11.8 8.2-15.4 13.4l-18.3 26-4-5.1c-.1-.1-6-7.6-13.6-15.5-12.8-13.3-19.5-16.7-22.4-17.5a12.3 12.3 0 0 0-3.9-.7z"/></symbol><symbol id="search" viewBox="0 0 137 150"><path fill="#cc6c5a" d="M134.4 130.3l-28.7-34.7a59.2 59.2 0 1 0-17.9 15.1l28.5 34.5a11.3 11.3 0 0 0 15.9 1.5l.7-.6a11.2 11.2 0 0 0 1.5-15.8zM22.7 58.6a36.7 36.7 0 1 1 36.6 36.7 36.6 36.6 0 0 1-36.6-36.7z"/></symbol><symbol id="cart" viewBox="0 0 193.2 161.4"><path fill="#cc6c5a" d="M182.3 14.1H36.8L35.4 7A9.6 9.6 0 0 0 26-.7H7.6A7.6 7.6 0 0 0 0 6.2a7.4 7.4 0 0 0 7.4 7.9h13.5l27.2 101.7a17 17 0 0 0 16.3 12.6h104.7a7.4 7.4 0 0 0 7.5-6.7 7.2 7.2 0 0 0-7.2-7.7h-98a8.3 8.3 0 0 1-7.9-5.9 2.6 2.6 0 0 1 2.1-3.3l104.9-12.3a10.8 10.8 0 0 0 9.3-8.4l13.1-56.7a10.8 10.8 0 0 0-10.6-13.3zm-5.7 25.5l-7.2 32.3a11 11 0 0 1-9.7 8.6L66.5 90.6a11.1 11.1 0 0 1-12-8.6l-9.7-42.4A11.2 11.2 0 0 1 55.7 26h110a11.2 11.2 0 0 1 10.9 13.6z"/><circle cx="64.7" cy="147.4" r="13.3" fill="#cc6c5a"/><circle cx="166.3" cy="147.4" r="13.3" fill="#cc6c5a"/></symbol><symbol id="profile" viewBox="0 0 114.3 164.1"><path fill="#cc6c5a" d="M87.1 72.7a42.9 42.9 0 1 0-59.9 0C10.9 84.7 0 106.1 0 130.5c0 37.5 25.6 32.6 57.2 32.6s57.1 4.9 57.1-32.6c0-24.4-10.9-45.8-27.2-57.8z"/></symbol><symbol id="facebook" viewBox="0 0 152.3 152.3"><path fill="#cc6c5a" d="M0 18.4v115.5a18.4 18.4 0 0 0 18.4 18.4h62.8V93.4H61.7v-23h19.6c0-5.5-.2-10.8.1-16s.7-9.2 2.1-13.4c3.6-11.5 14.1-18.1 27.6-17.9 4.9 0 9.7.4 14.6.5 2.1.1 2.9 1 2.8 3.2-.1 5.7 0 11.5 0 17.6h-12.3c-8.1.1-11.1 3.1-11.2 11.2v14.8h22.7c-1 7.7-1.9 15.1-2.9 22.8H105v55.3c0 1.3-.2 2.5-.3 3.8h29.2a18.4 18.4 0 0 0 18.4-18.4V18.4A18.4 18.4 0 0 0 133.9 0H18.4A18.4 18.4 0 0 0 0 18.4z"/></symbol><symbol id="nav" viewBox="0 0 129.2 131.5"><path fill="#cc6c5a" d="M0 100.4h129.2v30.34H0zm0-50.5h129.2v30.34H0zM0-.7h129.2v30.34H0z"/></symbol><symbol id="heart" viewBox="0 0 119.2 136.4"><path fill="#cc6c5a" d="M63.4 135.7S16.1 64.6 4.9 37.5 3.2-3.5 19.5 1.3s43.9 39.6 43.9 39.6l16.7-23.7c3.9-5.6 14.4-16.1 21-17.5s14.1-.2 17.5 9.7c6.8 19.7-41.8 108.2-55.2 126.3z"/></symbol><symbol id="search" viewBox="0 0 137 150"><path fill="#cc6c5a" d="M134.4 130.3l-28.7-34.7a59.2 59.2 0 1 0-17.9 15.1l28.5 34.5a11.3 11.3 0 0 0 15.9 1.5l.7-.6a11.2 11.2 0 0 0 1.5-15.8zM22.7 58.6a36.7 36.7 0 1 1 36.6 36.7 36.6 36.6 0 0 1-36.6-36.7z"/></symbol><symbol id="negative-heart" viewBox="0 0 113.9 132.6"><path fill="#cc6c5a" d="M60.2 131.9l-3.9-5.7c-1.7-2.6-41.7-63-51.6-86.8-8.4-20.2-3.6-30 0-34S15.8-1 23.3 1.2c12.1 3.5 28.9 22.1 36.8 31.4L71 17C73.8 13 84.1 1.5 92.4-.2c10-2 17.6 2.2 20.8 11.6 7.2 21-39.5 102.1-49 114.9zM16.7 9.8a5.9 5.9 0 0 0-4.8 2c-2.8 3-3.8 10.9 1.7 23.9 7.7 18.7 36.2 63 46.8 79.1a541.7 541.7 0 0 0 26.3-48.2c15.2-31.4 18.9-47.5 17.4-52.1s-4.5-6.3-9.8-5.3c-3.6.8-11.8 8.2-15.4 13.4l-18.3 26-4-5.1c-.1-.1-6-7.6-13.6-15.5-12.8-13.3-19.5-16.7-22.4-17.5a12.3 12.3 0 0 0-3.9-.7z"/></symbol><symbol id="cart" viewBox="0 0 193.2 161.4"><path fill="#cc6c5a" d="M182.3 14.1H36.8L35.4 7A9.6 9.6 0 0 0 26-.7H7.6A7.6 7.6 0 0 0 0 6.2a7.4 7.4 0 0 0 7.4 7.9h13.5l27.2 101.7a17 17 0 0 0 16.3 12.6h104.7a7.4 7.4 0 0 0 7.5-6.7 7.2 7.2 0 0 0-7.2-7.7h-98a8.3 8.3 0 0 1-7.9-5.9 2.6 2.6 0 0 1 2.1-3.3l104.9-12.3a10.8 10.8 0 0 0 9.3-8.4l13.1-56.7a10.8 10.8 0 0 0-10.6-13.3zm-5.7 25.5l-7.2 32.3a11 11 0 0 1-9.7 8.6L66.5 90.6a11.1 11.1 0 0 1-12-8.6l-9.7-42.4A11.2 11.2 0 0 1 55.7 26h110a11.2 11.2 0 0 1 10.9 13.6z"/><circle cx="64.7" cy="147.4" r="13.3" fill="#cc6c5a"/><circle cx="166.3" cy="147.4" r="13.3" fill="#cc6c5a"/></symbol><symbol id="profile" viewBox="0 0 114.3 164.1"><path fill="#cc6c5a" d="M87.1 72.7a42.9 42.9 0 1 0-59.9 0C10.9 84.7 0 106.1 0 130.5c0 37.5 25.6 32.6 57.2 32.6s57.1 4.9 57.1-32.6c0-24.4-10.9-45.8-27.2-57.8z"/></symbol><symbol id="twitter" viewBox="0 0 185.8 152.4"><path fill="#cc6c5a" d="M55.7 119.3C39 131.8 20.9 136.7 0 135.4l3 1.9c29.6 16.7 60.6 19.5 92.6 8.6 44.4-15 70.8-58.4 71.7-101 .1-4.8.9-8.1 5-11.3s9-9.2 13.5-13.9l-.7-.6-19.1 5.1c6.6-5.9 12.2-12.1 14.7-20.3l-20 7.4c-2.3.8-4.2.4-6.3-1.5a38.3 38.3 0 0 0-60.3 12.3c-3.7 7.9-4.2 16.2-2.8 25.1C59.1 45 33 31.5 11.8 6.9c-8.7 20.3-5.2 37 11.3 51l-.7.8-15.9-4.4c1.4 19.2 11.4 31.4 29.2 38.2l-14.8.7c2.5 12.8 16.1 23.3 34.8 26.1z"/><path fill="#cc6c5a" d="M55.7 119.3C37 116.5 23.4 106 20.9 93.2l14.8-.7c-17.8-6.8-27.8-19-29.2-38.2l15.9 4.4.7-.8c-16.5-14-20-30.7-11.3-51C33 31.5 59.1 45 91.3 47.2c-1.4-8.9-.9-17.2 2.8-25.1a38.3 38.3 0 0 1 60.3-12.3c2.1 1.9 4 2.3 6.3 1.5l20-7.4c-2.5 8.2-8.1 14.4-14.7 20.3l19.1-5.1.7.6c-4.5 4.7-8.5 10-13.5 13.9s-4.9 6.5-5 11.3c-.9 42.6-27.3 86-71.7 101-32 10.9-63 8.1-92.6-8.6l-3-1.9c20.9 1.3 39-3.6 55.7-16.1z"/></symbol><symbol id="facebook" viewBox="0 0 152.3 152.3"><path fill="#cc6c5a" d="M0 18.4v115.5a18.4 18.4 0 0 0 18.4 18.4h62.8V93.4H61.7v-23h19.6c0-5.5-.2-10.8.1-16s.7-9.2 2.1-13.4c3.6-11.5 14.1-18.1 27.6-17.9 4.9 0 9.7.4 14.6.5 2.1.1 2.9 1 2.8 3.2-.1 5.7 0 11.5 0 17.6h-12.3c-8.1.1-11.1 3.1-11.2 11.2v14.8h22.7c-1 7.7-1.9 15.1-2.9 22.8H105v55.3c0 1.3-.2 2.5-.3 3.8h29.2a18.4 18.4 0 0 0 18.4-18.4V18.4A18.4 18.4 0 0 0 133.9 0H18.4A18.4 18.4 0 0 0 0 18.4z"/></symbol><symbol id="nav" viewBox="0 0 129.2 131.5"><path fill="#cc6c5a" d="M0 100.4h129.2v30.34H0zm0-50.5h129.2v30.34H0zM0-.7h129.2v30.34H0z"/></symbol><symbol id="heart" viewBox="0 0 119.2 136.4"><path fill="#cc6c5a" d="M63.4 135.7S16.1 64.6 4.9 37.5 3.2-3.5 19.5 1.3s43.9 39.6 43.9 39.6l16.7-23.7c3.9-5.6 14.4-16.1 21-17.5s14.1-.2 17.5 9.7c6.8 19.7-41.8 108.2-55.2 126.3z"/></symbol><symbol id="negative-heart" viewBox="0 0 113.9 132.6"><path fill="#cc6c5a" d="M60.2 131.9l-3.9-5.7c-1.7-2.6-41.7-63-51.6-86.8-8.4-20.2-3.6-30 0-34S15.8-1 23.3 1.2c12.1 3.5 28.9 22.1 36.8 31.4L71 17C73.8 13 84.1 1.5 92.4-.2c10-2 17.6 2.2 20.8 11.6 7.2 21-39.5 102.1-49 114.9zM16.7 9.8a5.9 5.9 0 0 0-4.8 2c-2.8 3-3.8 10.9 1.7 23.9 7.7 18.7 36.2 63 46.8 79.1a541.7 541.7 0 0 0 26.3-48.2c15.2-31.4 18.9-47.5 17.4-52.1s-4.5-6.3-9.8-5.3c-3.6.8-11.8 8.2-15.4 13.4l-18.3 26-4-5.1c-.1-.1-6-7.6-13.6-15.5-12.8-13.3-19.5-16.7-22.4-17.5a12.3 12.3 0 0 0-3.9-.7z"/></symbol><symbol id="search" viewBox="0 0 137 150"><path fill="#cc6c5a" d="M134.4 130.3l-28.7-34.7a59.2 59.2 0 1 0-17.9 15.1l28.5 34.5a11.3 11.3 0 0 0 15.9 1.5l.7-.6a11.2 11.2 0 0 0 1.5-15.8zM22.7 58.6a36.7 36.7 0 1 1 36.6 36.7 36.6 36.6 0 0 1-36.6-36.7z"/></symbol><symbol id="profile" viewBox="0 0 114.3 164.1"><path fill="#cc6c5a" d="M87.1 72.7a42.9 42.9 0 1 0-59.9 0C10.9 84.7 0 106.1 0 130.5c0 37.5 25.6 32.6 57.2 32.6s57.1 4.9 57.1-32.6c0-24.4-10.9-45.8-27.2-57.8z"/></symbol><symbol id="cart" viewBox="0 0 193.2 161.4"><path fill="#cc6c5a" d="M182.3 14.1H36.8L35.4 7A9.6 9.6 0 0 0 26-.7H7.6A7.6 7.6 0 0 0 0 6.2a7.4 7.4 0 0 0 7.4 7.9h13.5l27.2 101.7a17 17 0 0 0 16.3 12.6h104.7a7.4 7.4 0 0 0 7.5-6.7 7.2 7.2 0 0 0-7.2-7.7h-98a8.3 8.3 0 0 1-7.9-5.9 2.6 2.6 0 0 1 2.1-3.3l104.9-12.3a10.8 10.8 0 0 0 9.3-8.4l13.1-56.7a10.8 10.8 0 0 0-10.6-13.3zm-5.7 25.5l-7.2 32.3a11 11 0 0 1-9.7 8.6L66.5 90.6a11.1 11.1 0 0 1-12-8.6l-9.7-42.4A11.2 11.2 0 0 1 55.7 26h110a11.2 11.2 0 0 1 10.9 13.6z"/><circle cx="64.7" cy="147.4" r="13.3" fill="#cc6c5a"/><circle cx="166.3" cy="147.4" r="13.3" fill="#cc6c5a"/></symbol><symbol id="twitter" viewBox="0 0 185.8 152.4"><path fill="#cc6c5a" d="M55.7 119.3C39 131.8 20.9 136.7 0 135.4l3 1.9c29.6 16.7 60.6 19.5 92.6 8.6 44.4-15 70.8-58.4 71.7-101 .1-4.8.9-8.1 5-11.3s9-9.2 13.5-13.9l-.7-.6-19.1 5.1c6.6-5.9 12.2-12.1 14.7-20.3l-20 7.4c-2.3.8-4.2.4-6.3-1.5a38.3 38.3 0 0 0-60.3 12.3c-3.7 7.9-4.2 16.2-2.8 25.1C59.1 45 33 31.5 11.8 6.9c-8.7 20.3-5.2 37 11.3 51l-.7.8-15.9-4.4c1.4 19.2 11.4 31.4 29.2 38.2l-14.8.7c2.5 12.8 16.1 23.3 34.8 26.1z"/><path fill="#cc6c5a" d="M55.7 119.3C37 116.5 23.4 106 20.9 93.2l14.8-.7c-17.8-6.8-27.8-19-29.2-38.2l15.9 4.4.7-.8c-16.5-14-20-30.7-11.3-51C33 31.5 59.1 45 91.3 47.2c-1.4-8.9-.9-17.2 2.8-25.1a38.3 38.3 0 0 1 60.3-12.3c2.1 1.9 4 2.3 6.3 1.5l20-7.4c-2.5 8.2-8.1 14.4-14.7 20.3l19.1-5.1.7.6c-4.5 4.7-8.5 10-13.5 13.9s-4.9 6.5-5 11.3c-.9 42.6-27.3 86-71.7 101-32 10.9-63 8.1-92.6-8.6l-3-1.9c20.9 1.3 39-3.6 55.7-16.1z"/></symbol><symbol id="facebook" viewBox="0 0 152.3 152.3"><path fill="#cc6c5a" d="M0 18.4v115.5a18.4 18.4 0 0 0 18.4 18.4h62.8V93.4H61.7v-23h19.6c0-5.5-.2-10.8.1-16s.7-9.2 2.1-13.4c3.6-11.5 14.1-18.1 27.6-17.9 4.9 0 9.7.4 14.6.5 2.1.1 2.9 1 2.8 3.2-.1 5.7 0 11.5 0 17.6h-12.3c-8.1.1-11.1 3.1-11.2 11.2v14.8h22.7c-1 7.7-1.9 15.1-2.9 22.8H105v55.3c0 1.3-.2 2.5-.3 3.8h29.2a18.4 18.4 0 0 0 18.4-18.4V18.4A18.4 18.4 0 0 0 133.9 0H18.4A18.4 18.4 0 0 0 0 18.4z"/></symbol><symbol id="facebook" viewBox="0 0 152.3 152.3"><path fill="#cc6c5a" d="M0 18.4v115.5a18.4 18.4 0 0 0 18.4 18.4h62.8V93.4H61.7v-23h19.6c0-5.5-.2-10.8.1-16s.7-9.2 2.1-13.4c3.6-11.5 14.1-18.1 27.6-17.9 4.9 0 9.7.4 14.6.5 2.1.1 2.9 1 2.8 3.2-.1 5.7 0 11.5 0 17.6h-12.3c-8.1.1-11.1 3.1-11.2 11.2v14.8h22.7c-1 7.7-1.9 15.1-2.9 22.8H105v55.3c0 1.3-.2 2.5-.3 3.8h29.2a18.4 18.4 0 0 0 18.4-18.4V18.4A18.4 18.4 0 0 0 133.9 0H18.4A18.4 18.4 0 0 0 0 18.4z"/></symbol><symbol id="nav" viewBox="0 0 129.2 131.5"><path fill="#cc6c5a" d="M0 100.4h129.2v30.34H0zm0-50.5h129.2v30.34H0zM0-.7h129.2v30.34H0z"/></symbol><symbol id="heart" viewBox="0 0 119.2 136.4"><path fill="#cc6c5a" d="M63.4 135.7S16.1 64.6 4.9 37.5 3.2-3.5 19.5 1.3s43.9 39.6 43.9 39.6l16.7-23.7c3.9-5.6 14.4-16.1 21-17.5s14.1-.2 17.5 9.7c6.8 19.7-41.8 108.2-55.2 126.3z"/></symbol><symbol id="negative-heart" viewBox="0 0 113.9 132.6"><path fill="#cc6c5a" d="M60.2 131.9l-3.9-5.7c-1.7-2.6-41.7-63-51.6-86.8-8.4-20.2-3.6-30 0-34S15.8-1 23.3 1.2c12.1 3.5 28.9 22.1 36.8 31.4L71 17C73.8 13 84.1 1.5 92.4-.2c10-2 17.6 2.2 20.8 11.6 7.2 21-39.5 102.1-49 114.9zM16.7 9.8a5.9 5.9 0 0 0-4.8 2c-2.8 3-3.8 10.9 1.7 23.9 7.7 18.7 36.2 63 46.8 79.1a541.7 541.7 0 0 0 26.3-48.2c15.2-31.4 18.9-47.5 17.4-52.1s-4.5-6.3-9.8-5.3c-3.6.8-11.8 8.2-15.4 13.4l-18.3 26-4-5.1c-.1-.1-6-7.6-13.6-15.5-12.8-13.3-19.5-16.7-22.4-17.5a12.3 12.3 0 0 0-3.9-.7z"/></symbol><symbol id="search" viewBox="0 0 137 150"><path fill="#cc6c5a" d="M134.4 130.3l-28.7-34.7a59.2 59.2 0 1 0-17.9 15.1l28.5 34.5a11.3 11.3 0 0 0 15.9 1.5l.7-.6a11.2 11.2 0 0 0 1.5-15.8zM22.7 58.6a36.7 36.7 0 1 1 36.6 36.7 36.6 36.6 0 0 1-36.6-36.7z"/></symbol><symbol id="cart" viewBox="0 0 193.2 161.4"><path fill="#cc6c5a" d="M182.3 14.1H36.8L35.4 7A9.6 9.6 0 0 0 26-.7H7.6A7.6 7.6 0 0 0 0 6.2a7.4 7.4 0 0 0 7.4 7.9h13.5l27.2 101.7a17 17 0 0 0 16.3 12.6h104.7a7.4 7.4 0 0 0 7.5-6.7 7.2 7.2 0 0 0-7.2-7.7h-98a8.3 8.3 0 0 1-7.9-5.9 2.6 2.6 0 0 1 2.1-3.3l104.9-12.3a10.8 10.8 0 0 0 9.3-8.4l13.1-56.7a10.8 10.8 0 0 0-10.6-13.3zm-5.7 25.5l-7.2 32.3a11 11 0 0 1-9.7 8.6L66.5 90.6a11.1 11.1 0 0 1-12-8.6l-9.7-42.4A11.2 11.2 0 0 1 55.7 26h110a11.2 11.2 0 0 1 10.9 13.6z"/><circle cx="64.7" cy="147.4" r="13.3" fill="#cc6c5a"/><circle cx="166.3" cy="147.4" r="13.3" fill="#cc6c5a"/></symbol><symbol id="profile" viewBox="0 0 114.3 164.1"><path fill="#cc6c5a" d="M87.1 72.7a42.9 42.9 0 1 0-59.9 0C10.9 84.7 0 106.1 0 130.5c0 37.5 25.6 32.6 57.2 32.6s57.1 4.9 57.1-32.6c0-24.4-10.9-45.8-27.2-57.8z"/></symbol><symbol id="twitter" viewBox="0 0 185.8 152.4"><path fill="#cc6c5a" d="M55.7 119.3C39 131.8 20.9 136.7 0 135.4l3 1.9c29.6 16.7 60.6 19.5 92.6 8.6 44.4-15 70.8-58.4 71.7-101 .1-4.8.9-8.1 5-11.3s9-9.2 13.5-13.9l-.7-.6-19.1 5.1c6.6-5.9 12.2-12.1 14.7-20.3l-20 7.4c-2.3.8-4.2.4-6.3-1.5a38.3 38.3 0 0 0-60.3 12.3c-3.7 7.9-4.2 16.2-2.8 25.1C59.1 45 33 31.5 11.8 6.9c-8.7 20.3-5.2 37 11.3 51l-.7.8-15.9-4.4c1.4 19.2 11.4 31.4 29.2 38.2l-14.8.7c2.5 12.8 16.1 23.3 34.8 26.1z"/><path fill="#cc6c5a" d="M55.7 119.3C37 116.5 23.4 106 20.9 93.2l14.8-.7c-17.8-6.8-27.8-19-29.2-38.2l15.9 4.4.7-.8c-16.5-14-20-30.7-11.3-51C33 31.5 59.1 45 91.3 47.2c-1.4-8.9-.9-17.2 2.8-25.1a38.3 38.3 0 0 1 60.3-12.3c2.1 1.9 4 2.3 6.3 1.5l20-7.4c-2.5 8.2-8.1 14.4-14.7 20.3l19.1-5.1.7.6c-4.5 4.7-8.5 10-13.5 13.9s-4.9 6.5-5 11.3c-.9 42.6-27.3 86-71.7 101-32 10.9-63 8.1-92.6-8.6l-3-1.9c20.9 1.3 39-3.6 55.7-16.1z"/></symbol><symbol id="facebook" viewBox="0 0 152.3 152.3"><path fill="#cc6c5a" d="M0 18.4v115.5a18.4 18.4 0 0 0 18.4 18.4h62.8V93.4H61.7v-23h19.6c0-5.5-.2-10.8.1-16s.7-9.2 2.1-13.4c3.6-11.5 14.1-18.1 27.6-17.9 4.9 0 9.7.4 14.6.5 2.1.1 2.9 1 2.8 3.2-.1 5.7 0 11.5 0 17.6h-12.3c-8.1.1-11.1 3.1-11.2 11.2v14.8h22.7c-1 7.7-1.9 15.1-2.9 22.8H105v55.3c0 1.3-.2 2.5-.3 3.8h29.2a18.4 18.4 0 0 0 18.4-18.4V18.4A18.4 18.4 0 0 0 133.9 0H18.4A18.4 18.4 0 0 0 0 18.4z"/></symbol><symbol id="instagram" viewBox="0 0 160.2 160.3"><g fill="#cc6c5a"><path d="M45.2 0h70.7a41.4 41.4 0 0 1 7 .6l1.2.2q27.3 6.2 34.8 33c.6 2.3.9 4.8 1.3 7.2v78.2l-.3 1.7c-1.1 4.1-1.6 8.6-3.4 12.4-7.9 17.3-21.7 26.5-40.7 26.8-23.8.3-47.6.1-71.3.1a44.1 44.1 0 0 1-25.4-7.9C6.4 143.2.1 130.7 0 115.1Q0 80.2.1 45a39.2 39.2 0 0 1 .8-9q6-27.2 32.9-34.7l2.5-.5a44.7 44.7 0 0 1 8.9-.8zM146 80.1V45.4a32.9 32.9 0 0 0-1.6-10.8c-4.5-12.7-15.5-20.4-29.3-20.4-23.3 0-46.7-.1-70 .1a33.7 33.7 0 0 0-10.4 1.6c-12.8 4.3-20.4 15.4-20.5 29.2V115a29.5 29.5 0 0 0 1.7 10.6c4.5 12.6 15.3 20.3 29 20.4h70.4a29.7 29.7 0 0 0 25.2-12.8A30.3 30.3 0 0 0 146 115z"/><path d="M160.2 41c-.4-2.4-.7-4.9-1.3-7.2Q151.4 7 124.1.8c-1.6-.4-3.2-.5-4.9-.8h41zm-38.8 39.1a41.3 41.3 0 1 1-41.3-41.3 41.5 41.5 0 0 1 41.3 41.3zm-14.2 0a27.1 27.1 0 1 0-27.1 27 27.1 27.1 0 0 0 27.1-27zm16.2-53.3A10.4 10.4 0 1 1 112.7 37a10.4 10.4 0 0 1 10.7-10.2z"/></g></symbol><symbol id="facebook" viewBox="0 0 152.3 152.3"><path fill="#cc6c5a" d="M0 18.4v115.5a18.4 18.4 0 0 0 18.4 18.4h62.8V93.4H61.7v-23h19.6c0-5.5-.2-10.8.1-16s.7-9.2 2.1-13.4c3.6-11.5 14.1-18.1 27.6-17.9 4.9 0 9.7.4 14.6.5 2.1.1 2.9 1 2.8 3.2-.1 5.7 0 11.5 0 17.6h-12.3c-8.1.1-11.1 3.1-11.2 11.2v14.8h22.7c-1 7.7-1.9 15.1-2.9 22.8H105v55.3c0 1.3-.2 2.5-.3 3.8h29.2a18.4 18.4 0 0 0 18.4-18.4V18.4A18.4 18.4 0 0 0 133.9 0H18.4A18.4 18.4 0 0 0 0 18.4z"/></symbol><symbol id="negative-heart" viewBox="0 0 113.9 132.6"><path fill="#cc6c5a" d="M60.2 131.9l-3.9-5.7c-1.7-2.6-41.7-63-51.6-86.8-8.4-20.2-3.6-30 0-34S15.8-1 23.3 1.2c12.1 3.5 28.9 22.1 36.8 31.4L71 17C73.8 13 84.1 1.5 92.4-.2c10-2 17.6 2.2 20.8 11.6 7.2 21-39.5 102.1-49 114.9zM16.7 9.8a5.9 5.9 0 0 0-4.8 2c-2.8 3-3.8 10.9 1.7 23.9 7.7 18.7 36.2 63 46.8 79.1a541.7 541.7 0 0 0 26.3-48.2c15.2-31.4 18.9-47.5 17.4-52.1s-4.5-6.3-9.8-5.3c-3.6.8-11.8 8.2-15.4 13.4l-18.3 26-4-5.1c-.1-.1-6-7.6-13.6-15.5-12.8-13.3-19.5-16.7-22.4-17.5a12.3 12.3 0 0 0-3.9-.7z"/></symbol><symbol id="nav" viewBox="0 0 129.2 131.5"><path fill="#cc6c5a" d="M0 100.4h129.2v30.34H0zm0-50.5h129.2v30.34H0zM0-.7h129.2v30.34H0z"/></symbol><symbol id="heart" viewBox="0 0 119.2 136.4"><path fill="#cc6c5a" d="M63.4 135.7S16.1 64.6 4.9 37.5 3.2-3.5 19.5 1.3s43.9 39.6 43.9 39.6l16.7-23.7c3.9-5.6 14.4-16.1 21-17.5s14.1-.2 17.5 9.7c6.8 19.7-41.8 108.2-55.2 126.3z"/></symbol><symbol id="search" viewBox="0 0 137 150"><path fill="#cc6c5a" d="M134.4 130.3l-28.7-34.7a59.2 59.2 0 1 0-17.9 15.1l28.5 34.5a11.3 11.3 0 0 0 15.9 1.5l.7-.6a11.2 11.2 0 0 0 1.5-15.8zM22.7 58.6a36.7 36.7 0 1 1 36.6 36.7 36.6 36.6 0 0 1-36.6-36.7z"/></symbol><symbol id="cart" viewBox="0 0 193.2 161.4"><path fill="#cc6c5a" d="M182.3 14.1H36.8L35.4 7A9.6 9.6 0 0 0 26-.7H7.6A7.6 7.6 0 0 0 0 6.2a7.4 7.4 0 0 0 7.4 7.9h13.5l27.2 101.7a17 17 0 0 0 16.3 12.6h104.7a7.4 7.4 0 0 0 7.5-6.7 7.2 7.2 0 0 0-7.2-7.7h-98a8.3 8.3 0 0 1-7.9-5.9 2.6 2.6 0 0 1 2.1-3.3l104.9-12.3a10.8 10.8 0 0 0 9.3-8.4l13.1-56.7a10.8 10.8 0 0 0-10.6-13.3zm-5.7 25.5l-7.2 32.3a11 11 0 0 1-9.7 8.6L66.5 90.6a11.1 11.1 0 0 1-12-8.6l-9.7-42.4A11.2 11.2 0 0 1 55.7 26h110a11.2 11.2 0 0 1 10.9 13.6z"/><circle cx="64.7" cy="147.4" r="13.3" fill="#cc6c5a"/><circle cx="166.3" cy="147.4" r="13.3" fill="#cc6c5a"/></symbol><symbol id="profile" viewBox="0 0 114.3 164.1"><path fill="#cc6c5a" d="M87.1 72.7a42.9 42.9 0 1 0-59.9 0C10.9 84.7 0 106.1 0 130.5c0 37.5 25.6 32.6 57.2 32.6s57.1 4.9 57.1-32.6c0-24.4-10.9-45.8-27.2-57.8z"/></symbol><symbol id="twitter" viewBox="0 0 185.8 152.4"><path fill="#cc6c5a" d="M55.7 119.3C39 131.8 20.9 136.7 0 135.4l3 1.9c29.6 16.7 60.6 19.5 92.6 8.6 44.4-15 70.8-58.4 71.7-101 .1-4.8.9-8.1 5-11.3s9-9.2 13.5-13.9l-.7-.6-19.1 5.1c6.6-5.9 12.2-12.1 14.7-20.3l-20 7.4c-2.3.8-4.2.4-6.3-1.5a38.3 38.3 0 0 0-60.3 12.3c-3.7 7.9-4.2 16.2-2.8 25.1C59.1 45 33 31.5 11.8 6.9c-8.7 20.3-5.2 37 11.3 51l-.7.8-15.9-4.4c1.4 19.2 11.4 31.4 29.2 38.2l-14.8.7c2.5 12.8 16.1 23.3 34.8 26.1z"/><path fill="#cc6c5a" d="M55.7 119.3C37 116.5 23.4 106 20.9 93.2l14.8-.7c-17.8-6.8-27.8-19-29.2-38.2l15.9 4.4.7-.8c-16.5-14-20-30.7-11.3-51C33 31.5 59.1 45 91.3 47.2c-1.4-8.9-.9-17.2 2.8-25.1a38.3 38.3 0 0 1 60.3-12.3c2.1 1.9 4 2.3 6.3 1.5l20-7.4c-2.5 8.2-8.1 14.4-14.7 20.3l19.1-5.1.7.6c-4.5 4.7-8.5 10-13.5 13.9s-4.9 6.5-5 11.3c-.9 42.6-27.3 86-71.7 101-32 10.9-63 8.1-92.6-8.6l-3-1.9c20.9 1.3 39-3.6 55.7-16.1z"/></symbol><symbol id="facebook" viewBox="0 0 152.3 152.3"><path fill="#cc6c5a" d="M0 18.4v115.5a18.4 18.4 0 0 0 18.4 18.4h62.8V93.4H61.7v-23h19.6c0-5.5-.2-10.8.1-16s.7-9.2 2.1-13.4c3.6-11.5 14.1-18.1 27.6-17.9 4.9 0 9.7.4 14.6.5 2.1.1 2.9 1 2.8 3.2-.1 5.7 0 11.5 0 17.6h-12.3c-8.1.1-11.1 3.1-11.2 11.2v14.8h22.7c-1 7.7-1.9 15.1-2.9 22.8H105v55.3c0 1.3-.2 2.5-.3 3.8h29.2a18.4 18.4 0 0 0 18.4-18.4V18.4A18.4 18.4 0 0 0 133.9 0H18.4A18.4 18.4 0 0 0 0 18.4z"/></symbol><symbol id="instagram" viewBox="0 0 160.2 160.3"><g fill="#cc6c5a"><path d="M45.2 0h70.7a41.4 41.4 0 0 1 7 .6l1.2.2q27.3 6.2 34.8 33c.6 2.3.9 4.8 1.3 7.2v78.2l-.3 1.7c-1.1 4.1-1.6 8.6-3.4 12.4-7.9 17.3-21.7 26.5-40.7 26.8-23.8.3-47.6.1-71.3.1a44.1 44.1 0 0 1-25.4-7.9C6.4 143.2.1 130.7 0 115.1Q0 80.2.1 45a39.2 39.2 0 0 1 .8-9q6-27.2 32.9-34.7l2.5-.5a44.7 44.7 0 0 1 8.9-.8zM146 80.1V45.4a32.9 32.9 0 0 0-1.6-10.8c-4.5-12.7-15.5-20.4-29.3-20.4-23.3 0-46.7-.1-70 .1a33.7 33.7 0 0 0-10.4 1.6c-12.8 4.3-20.4 15.4-20.5 29.2V115a29.5 29.5 0 0 0 1.7 10.6c4.5 12.6 15.3 20.3 29 20.4h70.4a29.7 29.7 0 0 0 25.2-12.8A30.3 30.3 0 0 0 146 115z"/><path d="M160.2 41c-.4-2.4-.7-4.9-1.3-7.2Q151.4 7 124.1.8c-1.6-.4-3.2-.5-4.9-.8h41zm-38.8 39.1a41.3 41.3 0 1 1-41.3-41.3 41.5 41.5 0 0 1 41.3 41.3zm-14.2 0a27.1 27.1 0 1 0-27.1 27 27.1 27.1 0 0 0 27.1-27zm16.2-53.3A10.4 10.4 0 1 1 112.7 37a10.4 10.4 0 0 1 10.7-10.2z"/></g></symbol><symbol id="sale" viewBox="0 0 359.5 103.2"><path fill="#cc6c5a" d="M151.8 55.9h14.8l-7.4-17.2-7.4 17.2z"/><path fill="#cc6c5a" d="M228.3 0H129a51.6 51.6 0 0 0-51.6 51.6 51.6 51.6 0 0 0 51.6 51.6h99.3a51.6 51.6 0 0 0 51.6-51.6A51.6 51.6 0 0 0 228.3 0zM132 65.9a12.8 12.8 0 0 1-5.6 4.2 22.5 22.5 0 0 1-8.6 1.4 31.5 31.5 0 0 1-8.7-1.2 19.1 19.1 0 0 1-6.8-3.6l2.4-5.3a22.9 22.9 0 0 0 6.2 3.2 22.4 22.4 0 0 0 7 1c2.8 0 4.9-.4 6.4-1.4a4.5 4.5 0 0 0 2.3-4.1 3.8 3.8 0 0 0-2.1-3.5 25.9 25.9 0 0 0-6.9-2.3 42.6 42.6 0 0 1-8.2-2.5 12.3 12.3 0 0 1-4.8-3.7 9.8 9.8 0 0 1-1.6-5.6 11 11 0 0 1 2-6.4 12.8 12.8 0 0 1 5.5-4.4 20.5 20.5 0 0 1 8.1-1.5 26.4 26.4 0 0 1 8.1 1.2A17.4 17.4 0 0 1 133 35l-2.4 5.3a19.1 19.1 0 0 0-12-4.2 11 11 0 0 0-6.1 1.5 5.2 5.2 0 0 0-2.3 4.4 4 4 0 0 0 2 3.6A24.4 24.4 0 0 0 119 48a43.9 43.9 0 0 1 8.3 2.5 11.6 11.6 0 0 1 4.9 3.6 8.8 8.8 0 0 1 1.7 5.5 11.2 11.2 0 0 1-1.9 6.3zm41.1 5.1l-4-9.4h-19.7l-4 9.4h-7.5l18.3-40.3h6L180.5 71zm41.3 0h-26.2V30.7h7.4V65h18.8zm34.9-34.5h-19.8v11.1h18.6v5.8h-18.6v11.8h19.8V71h-27V30.7h27zm41.1-.1c2.5-7.6 8-20.7 18.8-28.5a9 9 0 0 1 7.4-1.8c3.1.7 5.8 3.1 2.1 10.7-5.7 11.8-15.4 12.4-25.7 21.3a1.6 1.6 0 0 1-2.6-1.7zm8.7 14.2c9.7-6.3 30.8-18.1 49.5-16.1a13.3 13.3 0 0 1 8.4 4.2c2.7 2.9 4.4 7.4-1.3 12.8a8.9 8.9 0 0 1-7.1 2.6c-9-.6-33.2-1.8-48.5-.6a1.6 1.6 0 0 1-1-2.9zm2.6 16c10.9 1.7 36.9 7.1 44 21.2 0 0 2.3 7.1-3.8 9.9a9 9 0 0 1-9.3-1.2 403.5 403.5 0 0 1-32.2-27.1 1.6 1.6 0 0 1 1.3-2.8zM68.6 32.9C65.9 25.2 60.4 13.3 50.3 6a9 9 0 0 0-7.4-1.8c-3.1.7-5.8 3.1-2.1 10.7 5.5 11.3 14.7 12.3 24.5 20.3a2.1 2.1 0 0 0 3.3-2.3zm-9.7 14.8c-10.3-6.5-30.2-17-48-15.1a13.3 13.3 0 0 0-8.4 4.2c-2.7 2.9-4.4 7.3 1.3 12.8a9.6 9.6 0 0 0 7.1 2.6c8.7-.6 31.4-1.8 46.7-.7a2.1 2.1 0 0 0 1.3-3.8zm-2.6 17.2c-11.6 2-35.7 7.5-42.5 21 0 0-2.3 7 3.8 9.9a9 9 0 0 0 9.3-1.2c6-4.6 19.6-15.3 31.1-26.1a2.1 2.1 0 0 0-1.7-3.6z"/></symbol></svg>