<svg id="Layer_1" data-name="Layer 1" xmlns="http://www.w3.org/2000/svg" width="2.2in" height="2.2in" viewBox="0 0 160.2 160.3"><title>instagram</title><path d="M45.2,0h70.7a41.4,41.4,0,0,1,7,.6l1.2.2q27.3,6.2,34.8,33c.6,2.3.9,4.8,1.3,7.2v78.2l-.3,1.7c-1.1,4.1-1.6,8.6-3.4,12.4-7.9,17.3-21.7,26.5-40.7,26.8-23.8.3-47.6.1-71.3.1a44.1,44.1,0,0,1-25.4-7.9C6.4,143.2.1,130.7,0,115.1Q0,80.2.1,45a39.2,39.2,0,0,1,.8-9Q6.9,8.8,33.8,1.3L36.3.8A44.7,44.7,0,0,1,45.2,0ZM146,80.1V45.4a32.9,32.9,0,0,0-1.6-10.8c-4.5-12.7-15.5-20.4-29.3-20.4-23.3,0-46.7-.1-70,.1a33.7,33.7,0,0,0-10.4,1.6C21.9,20.2,14.3,31.3,14.2,45.1V115a29.5,29.5,0,0,0,1.7,10.6c4.5,12.6,15.3,20.3,29,20.4h70.4a29.7,29.7,0,0,0,25.2-12.8A30.3,30.3,0,0,0,146,115Z" fill="#cc6c5a"/><path d="M121.4,80.1A41.3,41.3,0,1,1,80.1,38.8,41.5,41.5,0,0,1,121.4,80.1Zm-14.2,0a27.1,27.1,0,1,0-27.1,27A27.1,27.1,0,0,0,107.2,80.1Z" fill="#cc6c5a"/><path d="M123.4,26.8A10.4,10.4,0,1,1,112.7,37,10.4,10.4,0,0,1,123.4,26.8Z" fill="#cc6c5a"/></svg>