<svg xmlns="http://www.w3.org/2000/svg" width="2.2in" height="2.2in" viewBox="0 0 160.2 160.3"><g fill="#cc6c5a"><path d="M45.2 0h70.7a41.4 41.4 0 0 1 7 .6l1.2.2q27.3 6.2 34.8 33c.6 2.3.9 4.8 1.3 7.2v78.2l-.3 1.7c-1.1 4.1-1.6 8.6-3.4 12.4-7.9 17.3-21.7 26.5-40.7 26.8-23.8.3-47.6.1-71.3.1a44.1 44.1 0 0 1-25.4-7.9C6.4 143.2.1 130.7 0 115.1Q0 80.2.1 45a39.2 39.2 0 0 1 .8-9q6-27.2 32.9-34.7l2.5-.5a44.7 44.7 0 0 1 8.9-.8zM146 80.1V45.4a32.9 32.9 0 0 0-1.6-10.8c-4.5-12.7-15.5-20.4-29.3-20.4-23.3 0-46.7-.1-70 .1a33.7 33.7 0 0 0-10.4 1.6c-12.8 4.3-20.4 15.4-20.5 29.2V115a29.5 29.5 0 0 0 1.7 10.6c4.5 12.6 15.3 20.3 29 20.4h70.4a29.7 29.7 0 0 0 25.2-12.8A30.3 30.3 0 0 0 146 115z"/><path d="M160.2 41c-.4-2.4-.7-4.9-1.3-7.2Q151.4 7 124.1.8c-1.6-.4-3.2-.5-4.9-.8h41zm-38.8 39.1a41.3 41.3 0 1 1-41.3-41.3 41.5 41.5 0 0 1 41.3 41.3zm-14.2 0a27.1 27.1 0 1 0-27.1 27 27.1 27.1 0 0 0 27.1-27zm16.2-53.3A10.4 10.4 0 1 1 112.7 37a10.4 10.4 0 0 1 10.7-10.2z"/></g></svg>