<svg id="Layer_1" data-name="Layer 1" xmlns="http://www.w3.org/2000/svg" width="5in" height="1.4in" viewBox="0 0 359.5 103.2"><title>icons</title><polygon points="151.8 55.9 166.6 55.9 159.2 38.7 151.8 55.9" fill="#cc6c5a"/><path d="M228.3,0H129A51.6,51.6,0,0,0,77.4,51.6h0A51.6,51.6,0,0,0,129,103.2h99.3a51.6,51.6,0,0,0,51.6-51.6h0A51.6,51.6,0,0,0,228.3,0ZM132,65.9a12.8,12.8,0,0,1-5.6,4.2,22.5,22.5,0,0,1-8.6,1.4,31.5,31.5,0,0,1-8.7-1.2,19.1,19.1,0,0,1-6.8-3.6l2.4-5.3a22.9,22.9,0,0,0,6.2,3.2,22.4,22.4,0,0,0,7,1c2.8,0,4.9-.4,6.4-1.4a4.5,4.5,0,0,0,2.3-4.1,3.8,3.8,0,0,0-2.1-3.5,25.9,25.9,0,0,0-6.9-2.3,42.6,42.6,0,0,1-8.2-2.5,12.3,12.3,0,0,1-4.8-3.7,9.8,9.8,0,0,1-1.6-5.6,11,11,0,0,1,2-6.4,12.8,12.8,0,0,1,5.5-4.4,20.5,20.5,0,0,1,8.1-1.5,26.4,26.4,0,0,1,8.1,1.2A17.4,17.4,0,0,1,133,35l-2.4,5.3a19.1,19.1,0,0,0-12-4.2,11,11,0,0,0-6.1,1.5,5.2,5.2,0,0,0-2.3,4.4,4,4,0,0,0,2,3.6A24.4,24.4,0,0,0,119,48a43.9,43.9,0,0,1,8.3,2.5,11.6,11.6,0,0,1,4.9,3.6,8.8,8.8,0,0,1,1.7,5.5A11.2,11.2,0,0,1,132,65.9ZM173.1,71l-4-9.4H149.4l-4,9.4h-7.5l18.3-40.3h6L180.5,71Zm41.3,0H188.2V30.7h7.4V65h18.8Zm34.9-34.5H229.5V47.6h18.6v5.8H229.5V65.2h19.8V71h-27V30.7h27Z" fill="#cc6c5a"/><path d="M290.4,36.4c2.5-7.6,8-20.7,18.8-28.5a9,9,0,0,1,7.4-1.8c3.1.7,5.8,3.1,2.1,10.7C313,28.6,303.3,29.2,293,38.1A1.6,1.6,0,0,1,290.4,36.4Z" fill="#cc6c5a"/><path d="M299.1,50.6c9.7-6.3,30.8-18.1,49.5-16.1a13.3,13.3,0,0,1,8.4,4.2c2.7,2.9,4.4,7.4-1.3,12.8a8.9,8.9,0,0,1-7.1,2.6c-9-.6-33.2-1.8-48.5-.6A1.6,1.6,0,0,1,299.1,50.6Z" fill="#cc6c5a"/><path d="M301.7,66.6c10.9,1.7,36.9,7.1,44,21.2,0,0,2.3,7.1-3.8,9.9a9,9,0,0,1-9.3-1.2,403.5,403.5,0,0,1-32.2-27.1A1.6,1.6,0,0,1,301.7,66.6Z" fill="#cc6c5a"/><path d="M68.6,32.9C65.9,25.2,60.4,13.3,50.3,6a9,9,0,0,0-7.4-1.8c-3.1.7-5.8,3.1-2.1,10.7,5.5,11.3,14.7,12.3,24.5,20.3A2.1,2.1,0,0,0,68.6,32.9Z" fill="#cc6c5a"/><path d="M58.9,47.7c-10.3-6.5-30.2-17-48-15.1a13.3,13.3,0,0,0-8.4,4.2c-2.7,2.9-4.4,7.3,1.3,12.8a9.6,9.6,0,0,0,7.1,2.6c8.7-.6,31.4-1.8,46.7-.7A2.1,2.1,0,0,0,58.9,47.7Z" fill="#cc6c5a"/><path d="M56.3,64.9c-11.6,2-35.7,7.5-42.5,21,0,0-2.3,7,3.8,9.9a9,9,0,0,0,9.3-1.2C32.9,90,46.5,79.3,58,68.5A2.1,2.1,0,0,0,56.3,64.9Z" fill="#cc6c5a"/></svg>