<svg xmlns="http://www.w3.org/2000/svg" width="5in" height="1.4in" viewBox="0 0 359.5 103.2"><path fill="#cc6c5a" d="M151.8 55.9h14.8l-7.4-17.2-7.4 17.2z"/><path fill="#cc6c5a" d="M228.3 0H129a51.6 51.6 0 0 0-51.6 51.6 51.6 51.6 0 0 0 51.6 51.6h99.3a51.6 51.6 0 0 0 51.6-51.6A51.6 51.6 0 0 0 228.3 0zM132 65.9a12.8 12.8 0 0 1-5.6 4.2 22.5 22.5 0 0 1-8.6 1.4 31.5 31.5 0 0 1-8.7-1.2 19.1 19.1 0 0 1-6.8-3.6l2.4-5.3a22.9 22.9 0 0 0 6.2 3.2 22.4 22.4 0 0 0 7 1c2.8 0 4.9-.4 6.4-1.4a4.5 4.5 0 0 0 2.3-4.1 3.8 3.8 0 0 0-2.1-3.5 25.9 25.9 0 0 0-6.9-2.3 42.6 42.6 0 0 1-8.2-2.5 12.3 12.3 0 0 1-4.8-3.7 9.8 9.8 0 0 1-1.6-5.6 11 11 0 0 1 2-6.4 12.8 12.8 0 0 1 5.5-4.4 20.5 20.5 0 0 1 8.1-1.5 26.4 26.4 0 0 1 8.1 1.2A17.4 17.4 0 0 1 133 35l-2.4 5.3a19.1 19.1 0 0 0-12-4.2 11 11 0 0 0-6.1 1.5 5.2 5.2 0 0 0-2.3 4.4 4 4 0 0 0 2 3.6A24.4 24.4 0 0 0 119 48a43.9 43.9 0 0 1 8.3 2.5 11.6 11.6 0 0 1 4.9 3.6 8.8 8.8 0 0 1 1.7 5.5 11.2 11.2 0 0 1-1.9 6.3zm41.1 5.1l-4-9.4h-19.7l-4 9.4h-7.5l18.3-40.3h6L180.5 71zm41.3 0h-26.2V30.7h7.4V65h18.8zm34.9-34.5h-19.8v11.1h18.6v5.8h-18.6v11.8h19.8V71h-27V30.7h27zm41.1-.1c2.5-7.6 8-20.7 18.8-28.5a9 9 0 0 1 7.4-1.8c3.1.7 5.8 3.1 2.1 10.7-5.7 11.8-15.4 12.4-25.7 21.3a1.6 1.6 0 0 1-2.6-1.7zm8.7 14.2c9.7-6.3 30.8-18.1 49.5-16.1a13.3 13.3 0 0 1 8.4 4.2c2.7 2.9 4.4 7.4-1.3 12.8a8.9 8.9 0 0 1-7.1 2.6c-9-.6-33.2-1.8-48.5-.6a1.6 1.6 0 0 1-1-2.9zm2.6 16c10.9 1.7 36.9 7.1 44 21.2 0 0 2.3 7.1-3.8 9.9a9 9 0 0 1-9.3-1.2 403.5 403.5 0 0 1-32.2-27.1 1.6 1.6 0 0 1 1.3-2.8zM68.6 32.9C65.9 25.2 60.4 13.3 50.3 6a9 9 0 0 0-7.4-1.8c-3.1.7-5.8 3.1-2.1 10.7 5.5 11.3 14.7 12.3 24.5 20.3a2.1 2.1 0 0 0 3.3-2.3zm-9.7 14.8c-10.3-6.5-30.2-17-48-15.1a13.3 13.3 0 0 0-8.4 4.2c-2.7 2.9-4.4 7.3 1.3 12.8a9.6 9.6 0 0 0 7.1 2.6c8.7-.6 31.4-1.8 46.7-.7a2.1 2.1 0 0 0 1.3-3.8zm-2.6 17.2c-11.6 2-35.7 7.5-42.5 21 0 0-2.3 7 3.8 9.9a9 9 0 0 0 9.3-1.2c6-4.6 19.6-15.3 31.1-26.1a2.1 2.1 0 0 0-1.7-3.6z"/></svg>