<svg id="Layer_1" data-name="Layer 1" xmlns="http://www.w3.org/2000/svg" width="2.7in" height="2.2in" viewBox="0 0 193.2 161.4"><title>icons</title><path d="M182.3,14.1H36.8L35.4,7A9.6,9.6,0,0,0,26-.7H7.6A7.6,7.6,0,0,0,0,6.2a7.4,7.4,0,0,0,7.4,7.9H20.9L48.1,115.8a17,17,0,0,0,16.3,12.6H169.1a7.4,7.4,0,0,0,7.5-6.7,7.2,7.2,0,0,0-7.2-7.7h-98a8.3,8.3,0,0,1-7.9-5.9h0a2.6,2.6,0,0,1,2.1-3.3L170.5,92.5a10.8,10.8,0,0,0,9.3-8.4l13.1-56.7A10.8,10.8,0,0,0,182.3,14.1Zm-5.7,25.5-7.2,32.3a11,11,0,0,1-9.7,8.6L66.5,90.6a11.1,11.1,0,0,1-12-8.6L44.8,39.6A11.2,11.2,0,0,1,55.7,26h110A11.2,11.2,0,0,1,176.6,39.6Z" fill="#fff"/><circle cx="64.7" cy="147.4" r="13.3" fill="#fff"/><circle cx="166.3" cy="147.4" r="13.3" fill="#fff"/></svg>