<svg xmlns="http://www.w3.org/2000/svg" width="2.6in" height="2.1in" viewBox="0 0 185.8 152.4"><path fill="#cc6c5a" d="M55.7 119.3C39 131.8 20.9 136.7 0 135.4l3 1.9c29.6 16.7 60.6 19.5 92.6 8.6 44.4-15 70.8-58.4 71.7-101 .1-4.8.9-8.1 5-11.3s9-9.2 13.5-13.9l-.7-.6-19.1 5.1c6.6-5.9 12.2-12.1 14.7-20.3l-20 7.4c-2.3.8-4.2.4-6.3-1.5a38.3 38.3 0 0 0-60.3 12.3c-3.7 7.9-4.2 16.2-2.8 25.1C59.1 45 33 31.5 11.8 6.9c-8.7 20.3-5.2 37 11.3 51l-.7.8-15.9-4.4c1.4 19.2 11.4 31.4 29.2 38.2l-14.8.7c2.5 12.8 16.1 23.3 34.8 26.1z"/><path fill="#cc6c5a" d="M55.7 119.3C37 116.5 23.4 106 20.9 93.2l14.8-.7c-17.8-6.8-27.8-19-29.2-38.2l15.9 4.4.7-.8c-16.5-14-20-30.7-11.3-51C33 31.5 59.1 45 91.3 47.2c-1.4-8.9-.9-17.2 2.8-25.1a38.3 38.3 0 0 1 60.3-12.3c2.1 1.9 4 2.3 6.3 1.5l20-7.4c-2.5 8.2-8.1 14.4-14.7 20.3l19.1-5.1.7.6c-4.5 4.7-8.5 10-13.5 13.9s-4.9 6.5-5 11.3c-.9 42.6-27.3 86-71.7 101-32 10.9-63 8.1-92.6-8.6l-3-1.9c20.9 1.3 39-3.6 55.7-16.1z"/></svg>