<svg id="Layer_1" data-name="Layer 1" xmlns="http://www.w3.org/2000/svg" width="2.6in" height="2.1in" viewBox="0 0 185.8 152.4"><title>twitter</title><path d="M55.7,119.3C39,131.8,20.9,136.7,0,135.4l3,1.9c29.6,16.7,60.6,19.5,92.6,8.6,44.4-15,70.8-58.4,71.7-101,.1-4.8.9-8.1,5-11.3s9-9.2,13.5-13.9l-.7-.6L166,24.2c6.6-5.9,12.2-12.1,14.7-20.3l-20,7.4c-2.3.8-4.2.4-6.3-1.5A38.3,38.3,0,0,0,94.1,22.1c-3.7,7.9-4.2,16.2-2.8,25.1C59.1,45,33,31.5,11.8,6.9c-8.7,20.3-5.2,37,11.3,51l-.7.8L6.5,54.3C7.9,73.5,17.9,85.7,35.7,92.5l-14.8.7C23.4,106,37,116.5,55.7,119.3Z" fill="#cc6c5a"/><path d="M55.7,119.3C37,116.5,23.4,106,20.9,93.2l14.8-.7C17.9,85.7,7.9,73.5,6.5,54.3l15.9,4.4.7-.8c-16.5-14-20-30.7-11.3-51C33,31.5,59.1,45,91.3,47.2c-1.4-8.9-.9-17.2,2.8-25.1A38.3,38.3,0,0,1,154.4,9.8c2.1,1.9,4,2.3,6.3,1.5l20-7.4c-2.5,8.2-8.1,14.4-14.7,20.3l19.1-5.1.7.6c-4.5,4.7-8.5,10-13.5,13.9s-4.9,6.5-5,11.3c-.9,42.6-27.3,86-71.7,101-32,10.9-63,8.1-92.6-8.6l-3-1.9C20.9,136.7,39,131.8,55.7,119.3Z" fill="#cc6c5a"/></svg>