<svg id="Layer_1" data-name="Layer 1" xmlns="http://www.w3.org/2000/svg" width="1.6in" height="1.8in" viewBox="0 0 113.9 132.6"><title>icons</title><path d="M60.2,131.9l-3.9-5.7c-1.7-2.6-41.7-63-51.6-86.8-8.4-20.2-3.6-30,0-34S15.8-1,23.3,1.2C35.4,4.7,52.2,23.3,60.1,32.6L71,17C73.8,13,84.1,1.5,92.4-.2c10-2,17.6,2.2,20.8,11.6,7.2,21-39.5,102.1-49,114.9ZM16.7,9.8a5.9,5.9,0,0,0-4.8,2c-2.8,3-3.8,10.9,1.7,23.9,7.7,18.7,36.2,63,46.8,79.1A541.7,541.7,0,0,0,86.7,66.6c15.2-31.4,18.9-47.5,17.4-52.1s-4.5-6.3-9.8-5.3c-3.6.8-11.8,8.2-15.4,13.4l-18.3,26-4-5.1c-.1-.1-6-7.6-13.6-15.5C30.2,14.7,23.5,11.3,20.6,10.5A12.3,12.3,0,0,0,16.7,9.8Z" fill="#9f9f9f"/></svg>