<svg height="5.9in" viewBox="0 0 1029.6 424.8" width="14.3in" xmlns="http://www.w3.org/2000/svg"><g fill="#cc6f5e"><path d="m365 209.9a34.2 34.2 0 0 1 -13.9-10.7 81.9 81.9 0 0 0 8.6-.1c18.8-1.7 20-3.5 13.2-17.6-2.9-6-5.9-11.9-8-18-5.5-16.1 3.8-30.4 21.9-34.6 13.2-3.1 26 4.8 32.9 20.3l5.5 11.6c9.3-9.5 10.2-20.1 13.8-29.7 2-5.5-4.6-6.7-8.9-8.5-13.1-5.5-26.7-10.3-39.5-16.3s-25-13.3-22.2-27.8c16.9-14.4 36.1-14.4 59.2-1.9-12-17.5-26.3-26.7-41.8-29.7-6-1.2-10.7-1.4-10.6 4.7.3 9.4-6.9 17.4-7.2 26.6-8.3 8.1-16.2 16.4-25 24.1-6 5.2-14.3 8.5-23.2 5.4s-11.8-10.1-13.4-17.8c-2.4-11.1 5.9-20.2 7.4-30.5l4.1-1.3a4.8 4.8 0 0 0 -.9-1l-3.7 1.8c-18.6 6.3-27.6 19.5-37 32.5-2.9 3.9-4.1 12.2-11.5 9.3s-.6-9.3 1.4-13.7c7.5-15.9 22.4-27.4 38.5-37.6 8.3-5.2 11.1-7.9-1.2-10.8s-26.4-6.3-25.8-18.5 16.2-15.2 28.7-18.1c27.4-6.2 52.3 1.8 71.5 23.9 13.1 15 34.1 20.8 51.2 31.1 6 3.6 7.7-1.4 9.8-4.4 4.6-6.3 8.4-13 13.4-19 8.3-10.1 14.3-10 23-.4 18.7 20.6 17.7 49.7-2.4 71.4s-19.4 20.8-24.8 46c10.3 1.1 19.7-2.8 29.5-3.2 12.2-.6 26.2-2.4 33.2 8.5s-1.7 22-17.6 29.2c-18 8.1-38.2 7.9-57.9 8.5-25.2.8-48.6 5.9-70.3 16.3zm81.6-133.6c-1.3 6.1 1.8 13.5 4.3 20.9s6.5 6.6 12.1 1.7c14.5-12.7 17.6-37 6.4-52.3-5.2-7-10.4-6.3-14.7.3-5.6 8.6-7.9 17.9-8.1 29.4zm3.7 106.7c7.1-.3 14-.1 20.7-1.1 11.3-1.6 22.2-4 27.6-13.7 3.2-5.7 3.5-9.8-6.2-10.2-17.2-.7-34.5-1.3-48.2 9.2-5.5 4.2-18 6.2-15.3 12.8s14.3 1.3 21.4 3zm-89.2-138.4c-36 11.2-51.4 37.3-33.9 56.8 20.1-15.5 35.9-32.2 33.9-56.8zm48 119.3c0-2.7.5-5.5-.1-8.2-2-8.4-5.3-16.6-18.4-16.5-10.2.1-16.5 10.3-14.1 21a81.5 81.5 0 0 1 1.9 10.8c.7 8.6 9.5 12.4 16.9 12.9s12.8-6.3 13.8-13.2a51.4 51.4 0 0 0 0-6.8zm-6.7-88c-11.9-.7-16.8 2.2-19.4 7.2s-.3 9.3 5 12 13.5 7.2 20.9 9 17.2 13.5 24.5 6.5-6.6-13.1-11.5-19.2-12-14.7-19.5-15.5zm-34.3-40.4c-11.7-19.9-37.8-28.5-62.5-23.5-5.7 1.1-12.3 1.5-11.9 7.5s7.6 6.6 14 6.8c19.8.6 40.3-3.4 60.4 9.2z"/><path d="m211 161.8 5-4.5c2.7-.6 6.2-.4 8-2 14.5-13.3 30.3-17.8 48.7-8 7 19.6-2.3 33.1-17.2 45.1-8.6 6.9-16.4 14.9-24.6 22.4 10.3-1.4 19.8-.8 29.2-1.5 31.5-2.2 31.5-2.4 40.7-30.3 9.5 11.9 19.7 23.4 26.5 37.2-5.4 2-12-5.4-15.7.2s3.5 9.7 6.1 14.3c5.2 9.1 11.3 17.8 17.2 26.5 3.1 4.7 7.1 9.2 13.7 8.1s5-8.6 6.5-13.5l9.7 10.6c.7 9-1.4 16.7-11.6 19.3s-16.2-3.5-21-10.6c-9.4-13.7-18.4-27.7-27.2-41.8-4.2-6.8-8-13.8-17.7-13.1-22.4 1.6-44 8.1-67.3 10.9l37.4 32.2a45.6 45.6 0 0 1 14.5 23.9c1.9 8.2 1.3 16.9-7.1 22.1s-16 4.9-24.2.5c-16.4-9-26.7-23.5-37.1-38-25.9-36.2-25.8-36.3-69-24.1-8.1 2.3-16.4 4.4-24.8 11 11.1 7.1 21.6 13.9 32.2 20.5 6.8 4.2 14 8.8 16.4 16.2 3.6 11.1 1.3 22.5-7.7 30.3s-18 2.3-26.6-2.9c-15.6-9.6-28-22.6-39.9-35.8-9.7-10.6-15.2-8.3-23.6.8-18.6 20.2-35.2 41.5-44.8 67.4-2 5.5-5.2 10.5-8.7 17.4-6.2-7.2-3.9-12.7-2.2-18.3 8.2-27.5 22-51.9 44.1-71.2 13.5-11.8 20.5-23.6 16.1-43.1-6.3-28.7 6.3-53 25.6-62.6 13.7-6.8 19.4-1.2 20.7 10.9s2.9 27.6-1.1 41 2.1 13.7 12.5 10.2a93.3 93.3 0 0 1 14.7-3.8c29-4.6 52.1-15.9 58.9-46.6 2.3-10.3 14.5-15.8 14.7-27.3zm-11.5 50.2c20.4-9.1 39.3-20 54.3-35.8 4.8-5.1 8.5-13 1.7-19.3s-13.7-4.7-18.4.9c-14.1 16.8-30 32.4-37.6 54.2zm59.2 77.3c-.5-1.2-.8-4.9-2.8-7.2-15.1-17.1-33.5-30.9-50.8-45.9-1.8-1.5-4.1-2.5-5.9-.6s-.7 6.1 1.2 8.8c10.7 14.8 21.2 29.7 32.3 44.2 3.6 4.7 7.7 9.7 14.6 10.5s11.6.2 11.4-9.8zm-109.5 16.3a21.8 21.8 0 0 0 -.8-3.6c-4-12-44.3-34.6-56.7-31.7-5 1.2-7 4.3-2.8 8.2 13.7 12.9 27.5 26 43.9 35.6 7.9 4.7 15.5 2.1 16.4-8.5zm-66.1-50.3c16.5-17.1 19.6-36.5 18.4-57.1-.1-3.3-.2-7.1-3.8-8.5s-5.9 2.1-8.3 4.2c-15.6 13.6-18.4 37.8-6.3 61.4z"/><path d="m343.7 187.6c-3.3-2.3-6-5-6.5-9.2 2.8-12.7 7.5-25.4-1.6-39.5-4.8 8.6-8.8 15.6-12.8 22.5l-9.4-10.4c5.5-6 11.1-12 16.7-17.9 7.3-7.6 13.1-6.5 18.4 2.4 6.9 11.7 8.4 23.3 2.3 35.7-2.6 5.3-4.7 10.9-7.1 16.4z"/><path d="m365 209.9c19.7 13.5 40.4 12.5 61.6 4 24.7-10 49.4-20 76.4-22.4 30-2.8 59.8.1 86.8 12.7s52.8 13.5 81.1 8.8 58.8-5.4 88.3-.2c8.3 1.4 15.9-.6 23-4.3 37.5-19.3 77.2-28.7 121-28-11.5-7-22.9-14.4-34.7-21-41.9-23.3-84.3-45.8-125.9-69.6-26.1-14.9-49.8-14.7-74.3 3-22.3 16.2-45.7 30.9-68.7 46.2-3.7 2.5-7.5 5.4-11.7 6.7-9.3 2.9-20.3 5.6-25.8-4.8s5.1-15.7 12.8-19.6c31.5-16.5 63.1-32.9 95.2-48.2s63-16.2 93.6-.1c82.4 43.4 164.3 87.7 246.4 131.7a37.2 37.2 0 0 1 14.5 13.6c8.3 13.3 6.7 21.8-8.1 27.7-13 5.3-19.3 14.2-23.8 26.1-5.9 15.5-12.6 30.6-19.1 45.9-19 44.7-56.1 65.9-103.3 73.8-31.1 5.2-61.4 3.7-88.7-13.4s-41.5-40.5-41.3-71.7c.1-15.3 1.4-30.7 2.6-46.1.5-5.7 1.7-11.3-5.9-13.2-24-6.2-47.2-6.4-69.3 6.6-6 3.6-6 8.5-6.4 14.1-2.1 28.8-9.1 56.3-23.8 81.9-43.8 76.4-156.2 97.5-219.9 41.4-31.3-27.5-36.6-63-31.3-99.9 2.9-20-4.8-24.4-21.5-25.2l-9.7-10.6c-8-12.8-16.6-25.1-27.8-35.6-6.8-13.8-17-25.3-26.5-37.2s-15.4-26.3-28.1-35.7c-18.7-30.8-40-59.8-68.6-88.5-1.4 16 3.5 26.3 5 37 2.8 20.4 13.7 40 6.9 61.5l-5 4.5c-18.8 3.6-22.7.8-24-16.4-1.6-20.2-3.7-40.3-5.5-60.5a77.2 77.2 0 0 1 -.6-8.2c.6-13.8 4.3-27.9 18.5-32.4s26.3 2.4 35.7 13.6c26 31.1 52.1 62 78.3 93.1l9.4 10.4c2.9 7.2 8 12.6 14.4 17 .5 4.2 3.2 6.9 6.5 9.2s5 6.3 7.4 9.5c3.6 5.3 7.9 9.9 13.9 12.8zm143.1 193c53.6 0 98.9-31.1 114.3-78.4 14.3-43.8-1.8-80.1-43.2-94.2-38.3-13.1-77-13.1-115.2 1.2-18.1 6.8-32.3 18.2-41.3 35.2-34.4 64.8 10.5 136.3 85.4 136.2zm346.3-26.6c56.4 1.4 104.6-39 112.1-93.4 3-22.1 5-44.9-19.4-56.4-36.5-17.1-74.5-26.5-114.8-9.8s-64 55.2-56.3 95.3c8.6 44.8 30.9 63.1 78.4 64.3zm-88.9-39.6c-2-25.1-3.6-45.7-5.5-69-14.1 24.5-12.7 46.8 5.5 69zm-126.5-105.9c.2 2 .5 3.9.8 5.8 23.2-3.2 46.4-6.2 68.9-12.4-.3-1.7-.6-3.4-1-5zm-24.7 6.6c-5.1-18.3-23.4-28.7-44.1-24.6zm326.1-36.6 41.8 31.9c-5.1-18.7-19.7-30.7-41.8-31.9z"/></g></svg>