<svg id="Layer_1" data-name="Layer 1" xmlns="http://www.w3.org/2000/svg" width="14.3in" height="6.6in" viewBox="0 0 1029.6 474.4"><title>glasses-3</title><path d="M692.2,385.2c-41.1-1.4-81.5-25.4-110-70-10.8-16.7-17.9-35.1-25.5-53.3-9.6-23-22.6-32-44.8-31.7s-34.8,9-43.7,32.8c-13,35-29.9,67.3-60,91-83,65.1-197.5,24.2-219.6-78.9-2.1-9.8-5.6-16.1-15.3-20.5-15.6-7.1-23-20.1-21.3-33,2-15.1,15-28.7,31.7-31,10.2-1.4,18.3-4.8,24-13.6,49.4-75.8,157.7-86.9,224.4-6.3,5.6,6.7,11.3,13.3,16.7,20.3,7.3,9.6,16.3,12.7,27.7,8.3,24.9-9.5,49.6-9.7,74.2.9,10.8,4.6,18.4.5,24.8-8.4,13.9-19.3,29.4-37,49.1-50.8,63.4-44.5,145.8-30.7,190.5,32.6,7,10,14.5,15.8,27.2,17.5,15.3,2.1,26.3,12.4,29.9,28s-4.2,26.6-17.1,33.8-16.8,16.3-19.9,29.1C820.5,343.5,767.2,385.1,692.2,385.2Zm115-134.5c-.1-58.5-45.2-103.9-102.9-103.6S601.1,193.2,601.1,249.5s45.3,103.6,99.2,103.7C761.3,353.2,807.3,309.1,807.2,250.7ZM321.7,147.1c-57.3-.1-104.1,46.1-104.4,103.1-.2,54.1,45.8,102.7,97.4,103,62.8.2,110-44.2,109.6-103.1C423.9,192.8,378.4,147.2,321.7,147.1Z" fill="#ebe5e4"/><path d="M898.3,91.3c18.8,9.2,28.4,28.5,49.3,36,31.9,11.4,39.8,72.5,14,94.5-4.2,3.6-8,4.8-10.3-1.1-10.1-24.9-24.5-48-32-74-1.2-4.2-2.8-9-1.8-13,4.4-18-8.2-25.3-20.1-33s-23.5-9.8-35.5-14.4c-26.7-10.2-50.7-24.5-69.2-46.8-2.7-3.2-6.8-6-5.6-12.3,8.7,1.9,14.7,10,24.5,9.5a88.1,88.1,0,0,0,43.7-13.3c3.8-2.3,7.1-5.3,10.8-7.7s9.3-9.9,14.6-6.4,3.2,12,1.5,18.4c-3.7,14.1-12.6,24.1-25.4,30.6-5.8,2.9-11.8,5.3-18.9,8.4,18.6,12.6,38.1,15.4,58.8,13.8,4.2-.3,5.6-3.1,7.1-6.6,14.3-32.6,44.7-44.8,77.8-30.9,20.2,8.5,34.5,24.2,47.9,40.7,4.7,5.8,2.7,9.4-4.5,8.6-23.9-2.6-47.5,2.1-71.2,3.7-16,1.1-31.7.7-46.6-6.2C904.8,88.7,902.2,87.8,898.3,91.3ZM1017.8,82a118.4,118.4,0,0,0-21.2-21.7c-18.6-15-39.4-18.5-62-11.2-9,3-16.8,8-20.7,17.2-1.3,3.1-3.6,6.8-1.2,9.9s6.5.8,9.7-.2c8.4-2.7,16.6-5.8,25.1-8.2,3.1-.8,7.5-3.7,10.6,3.1L920.7,85C938.3,90.9,980.4,89.4,1017.8,82Zm-91.9,49.6c1.5,28.9,17.6,52.4,29.1,77.7,2,4.5,4.6,1.9,6.8-.8,12.5-15.6,8.6-55.2-7.1-68.9-2.9-2.6-6.6-6.6-10.2-4.4s.1,7.1.8,10.7c1.8,8.7,8,16.9,3.8,26.6C941.5,158.7,939.4,142.4,925.9,131.6ZM811.3,44.7c14.1,7.1,29.2-4.6,38.3,9.4.3.5,3.3-.5,4.8-1.4,12.1-6.9,19.3-17.1,21.6-33.9C855.7,32.1,837.3,43.3,811.3,44.7Z" fill="#e7dfdc"/><path d="M883.7,364.2c1.4,2.5,3.6,1.4,5.5.5,12.9-10.1,27.3-16.4,43.2-20.2,30.2-7.2,61.8-7.5,90.8-20.3,6.2-2.7,8.6,2,6.2,7.4-13.9,30.6-29.8,59.6-63.5,72.8-27.7,10.8-54.8,2.5-71.3-21.6-2.6-3.8-4.6-8.1-10.2-7-22.5,4.1-42.2,13.3-59.3,29.9,7,5.3,13.3,3.9,19,5.1,19.4,4.3,34,14.5,42.1,33,2.2,5,5.4,11,1.1,15.5s-9.5.2-13.9-1.7c-19.7-8.5-40-12.8-61.6-10.3-9.3,1.1-17.4,4-23.8,11.2-2.6,2.9-3.9,10.5-9.4,6.3s.7-8.3,2.6-12.1A187.3,187.3,0,0,1,853,374.1c14.8-9,27.6-20,37.3-34.4,3.5-5.2,5.8-10.5,3.6-16.9-13.4-40.3,5.3-78.1,8.7-117.1.5-6.3,4.3-6.9,9.6-4.6,33.7,14.2,46.3,83.5,16.8,105.7-20,15-28.7,36.5-43.3,54.4C885,362.3,883.4,363.7,883.7,364.2Zm24.9-2.3c15.8,8,31.4.9,45.6,9.2-12.1,7.3-23.4,2.6-34.3,2.7-6.1,0-15.1-5.1-17.3,2.3s5.5,13.2,12.3,17c19.5,11.2,52.9,6.7,71.8-10.2,13.6-12.1,22.5-27.6,31.1-46.8C980.8,345.8,944.5,346.4,908.6,361.9Zm6.1-101.3c6.7,14.2,1.7,28.9,2.9,44.7,8.1-3.7,12.7-9.3,15.1-16.4,8.6-25.3,3.7-48.4-12.2-69.4-2-2.5-4.2-6.3-8.4-4.7s-2.8,5-3.3,7.8c-3.9,21.6-8,43.3-11.3,65.1-1.2,7.8-1.2,15.9,4.3,25.3C912,295.9,910.3,277.6,914.7,260.6ZM836.8,425.4c-8.1,7.5-20.1,4.6-28.7,12.4,23.8-1.7,46.4,3.9,69.6,12.4-7.7-25.9-34.7-38.8-55.4-28.5C826.3,425.4,832.3,420.2,836.8,425.4Z" fill="#e7dfdc"/><path d="M125.2,89.8c-14.9,6.9-30.7,7.3-46.6,6.2-23.8-1.6-47.3-6.3-71.2-3.7-7.2.8-9.2-2.8-4.5-8.6C16.3,67.2,30.6,51.5,50.8,43c33.1-13.9,63.5-1.7,77.8,30.9,1.5,3.5,2.9,6.3,7.1,6.6,20.7,1.6,40.2-1.2,58.7-13.8-7-3.1-13.1-5.5-18.8-8.4-12.8-6.5-21.7-16.5-25.4-30.6-1.7-6.4-4.7-14.3,1.5-18.4s10,3.4,14.6,6.4,7,5.4,10.8,7.7a88.1,88.1,0,0,0,43.7,13.3c9.7.5,15.8-7.6,24.5-9.5,1.2,6.3-2.9,9.1-5.6,12.3-18.5,22.3-42.5,36.6-69.3,46.8-11.9,4.6-24.5,7.4-35.4,14.4s-24.5,15-20.1,33c1,4-.6,8.8-1.8,13-7.6,26-21.9,49.1-32,74-2.3,5.9-6.1,4.7-10.3,1.1-25.8-22-17.9-83.1,14-94.5,20.9-7.5,30.5-26.8,49.3-36C130.2,87.8,127.6,88.7,125.2,89.8ZM111.7,85,74.3,70.9c3.1-6.8,7.5-3.9,10.6-3.1,8.5,2.4,16.7,5.5,25.1,8.2,3.2,1,6.8,3.9,9.6.2s.2-6.8-1.1-9.9c-4-9.2-11.7-14.2-20.7-17.2-22.6-7.3-43.4-3.8-62,11.2A118.4,118.4,0,0,0,14.6,82C52,89.4,94,90.9,111.7,85ZM83.2,172.5c-4.1-9.7,2.1-17.9,3.8-26.6.8-3.6,5.2-7.9.9-10.7s-7.3,1.8-10.3,4.4c-15.6,13.7-19.5,53.3-7,68.9,2.2,2.7,4.7,5.3,6.8.8,11.5-25.3,27.6-48.8,29.1-77.7C93,142.4,90.9,158.7,83.2,172.5ZM156.4,18.8c2.3,16.8,9.5,27,21.6,33.9,1.4.9,4.5,1.9,4.8,1.4,9.1-14,24.2-2.3,38.3-9.4C195.1,43.3,176.6,32.1,156.4,18.8Z" fill="#e7dfdc"/><path d="M146.7,361.2c-14.6-17.9-23.4-39.4-43.3-54.4-29.5-22.2-16.9-91.5,16.7-105.7,5.4-2.3,9.2-1.7,9.7,4.6,3.4,39,22.1,76.8,8.7,117.1-2.2,6.4.1,11.7,3.6,16.9,9.7,14.4,22.5,25.4,37.3,34.4,31.5,19.2,55.4,45.5,71.8,78.6,1.9,3.8,6.6,9,2.5,12.1s-6.7-3.4-9.3-6.3c-6.4-7.2-14.5-10.1-23.8-11.2-21.6-2.5-41.9,1.8-61.6,10.3-4.4,1.9-9.8,5.9-13.9,1.7s-1.1-10.5,1.1-15.5c8.1-18.5,22.7-28.7,42.1-33,5.6-1.2,12,.2,19-5.1-17.1-16.6-36.8-25.8-59.3-29.9-5.6-1.1-7.6,3.2-10.2,7-16.6,24.1-43.7,32.4-71.3,21.6C32.8,391.2,16.9,362.2,3,331.6c-2.4-5.4,0-10.1,6.2-7.4C38.1,337,69.8,337.3,100,344.5c15.9,3.8,30.3,10.1,43.1,20.2,2,.9,4.2,2,5.6-.5C149,363.7,147.4,362.3,146.7,361.2ZM14.6,336.1c8.6,19.2,17.5,34.7,31.1,46.8,18.9,16.9,52.3,21.4,71.8,10.2,6.8-3.8,14.5-9.6,12.3-17s-11.3-2.3-17.3-2.3c-10.9-.1-22.2,4.6-34.3-2.7,14.2-8.3,29.8-1.2,45.6-9.2C87.8,346.4,51.5,345.8,14.6,336.1ZM130.5,313c5.6-9.4,5.6-17.5,4.4-25.3-3.4-21.8-7.4-43.5-11.3-65.1-.5-2.8,0-6.6-3.3-7.8s-6.4,2.2-8.4,4.7c-15.9,21-20.8,44.1-12.2,69.4,2.4,7.1,7,12.7,15.1,16.4,1.2-15.8-3.8-30.5,2.9-44.7C122.1,277.6,120.4,295.9,130.5,313Zm79.6,108.7c-20.7-10.3-47.7,2.6-55.4,28.5,23.2-8.5,45.7-14.1,69.6-12.4-8.6-7.8-20.6-4.9-28.7-12.4C200,420.2,206.1,425.4,210.1,421.7Z" fill="#e7dfdc"/><path d="M105,307.3c.7,1,2.2,2.4,2,2.9-1.4,2.4-3.5,1.3-5.4.4Z" fill="#b29b7c"/></svg>