<svg id="Layer_1" data-name="Layer 1" xmlns="http://www.w3.org/2000/svg" width="14.3in" height="5.9in" viewBox="0 0 1029.6 424.8"><title>glasses-1</title><path d="M0,303.2c10.1-34.6,27.5-63.6,63.6-80.1-26.8-22.8-44.1-48.5-28.1-82.2,12.7-26.5,39.5-34.2,65.9-35.1,38.4-1.4,52.6,26.5,60.8,59.9l41-36.2-7.1-11.9c-4.7-7.9-11.1-15.4-13.6-24a106.5,106.5,0,0,1-4.3-33.7c.7-18.2,17.5-11.4,26.7-13.4,94.4-20.8,189-18.8,283.4,1.5,10.1,2.2,21.1,4,29.3,9.5C542,73.7,568.2,70,595.2,70.9c36.4,1.3,70.4-.3,102.9-18.2,10.6-5.9,24.1-6.5,36.1-9.5C744.1-1.9,776-1.3,807.3,18.3c16.9,10.7,32.8,12.8,51.6,14.1,46.5,3,93.1,7.7,139.5,13.5,25.5,3.2,34.1,20.8,21.9,44.7-9,17.7-21.7,33.6-32.6,50.5-2,3.1-2.8,7-3.8,10.6-6.1,21.4-11.4,43.1-18.2,64.2-28.8,90.1-116.6,119.5-195.6,98-52.1-14.3-84.5-48.8-102.2-101-3.4,3.6-5.8,5.5-7.3,8C619.5,287.7,556.2,322.4,483,341.4c-20.7,5.4-34.9,14.1-42.8,35.1-10.9,28.9-47.6,48.1-78.6,44.1-11.5-1.5-12.1-7.4-7.4-15.9,7.7-13.4,15.6-26.8,22.8-39.1-30.4,0-59.9,2.8-88.7-.8S232.1,351,205.5,344c-5.8,9.6-10.7,26.4-21.9,34.2s-29,10-43.4,8.9c-32.6-2.5-27.5-30.5-30.6-55.3-7.6,6.6-13.6,11.7-19.2,17-35.1,32.5-75.3,26-88.1-20.5-.3-.9-1.5-1.5-2.3-2.2ZM234.6,117.7l20.9-2.3c21.2-2.3,44.3,7.5,50.8,22.2,8.9,20-2.3,34.6-15.2,47.8-10.3,10.4-21.9,19.5-32.4,29.6-3.1,3-6.6,8.5-5.7,11.6s6.7,7.5,10.7,7.9c30.9,3.2,44.5,23.5,52.6,50.4,1.4,5,5,11.4,9.2,13.2,63.3,26.2,168.6,11.3,195.8-85.2a407.8,407.8,0,0,0,12-62.1c5.5-44.9-9.7-68.6-52.6-83-51.4-17.2-104.7-18-158-14.2-13,.9-26.2,3-38.4,7.2-26,9.1-44,26.4-49.7,56.9ZM691.8,170c-14.8,15.1-17.1,29.2-10.5,47.5C711,300.7,793.7,322,863,303.6c56.9-15.1,86.6-58.7,99.9-112.6,6.3-25.7,6.2-53.8,4-80.5-1.7-19.4-13.7-36.4-37.8-34.4C880.9,80,832.5,82.3,785,89.8c-42.1,6.5-43.6,11.7-46.6,54.8-.7,9.7-1.5,19.7-4.5,28.9a60.6,60.6,0,0,1-13.1,22.1c-10.9,11.1-20.2,7.9-24.2-6.9Zm-53.7,63c4-7.1,10.6-16,14.5-25.9a119.4,119.4,0,0,0,6.9-32.3c.8-10.1-1.1-20.6-2.1-30.7-4.2-39.8-15.3-50-54.2-50.1h-9.8c-30.2.4-40.5,7.7-46.4,37.9-6.7,34.7-11.4,69.8-16.3,100.5,13.3,1.5,29.3,4,45.3,4.9,12.7.7,25.6-.4,38.3-1.1,6.9-.3,13.7-1.7,23.8-3.2ZM504,269c-23.8,25.9-52.1,42.2-86.9,48s-67,2.4-100.6-8.8c-10.1,28.6-37.7,29.2-63.3,38.7,6.3,1.8,8.8,2.7,11.4,3.3,53.8,14.3,106.7,6,159-7.7,4.6-1.2,7.6-8.4,11.4-12.8,23.3,13.4,127.1-18.4,143-44.6-24.8-4.3-52.7,6-74-16.1ZM68.2,278.3l-2.8-5.6c8.1-4.8,17.5-8.5,23.8-15s6.4-13.8,9.4-21c-6.1-1.9-12.3-5.8-18.3-5.3C36.8,235,.2,296.7,17.3,336.6c7.6,17.7,22.1,25.8,39.4,18.7,28.1-11.4,46.6-33.7,57.9-61,2.5-5.9-3.9-17.2-9.1-23.7-2.2-2.7-12.1.1-18.1,1.4S74.6,276.1,68.2,278.3Zm77.9-82.5c11.3-24.2,2.2-56.7-19.6-71.1S69,116.3,51,137.8c-14.9,17.8-12.9,42.9,4.9,62.1s49.4,23.3,72.5,7.2c-4.9-16-22.4-26.6-20.3-46.3C119.7,174.2,125.9,192.6,146.1,195.8Zm106.8,73.3-.9,6.2c-8.2-.4-16.5-.3-24.5-1.6A29.5,29.5,0,0,0,196,292.8c-4.6,13.2,2.3,22.1,13.1,28.3,22.5,12.6,47,14.5,70.6,6.1,10.3-3.6,18-14.5,27.4-22.6-12.5-9.7-21.6-15.7-29.4-23.1a218.4,218.4,0,0,1-22.4-25.6c-9.6-12.7-29.5-13.5-44,1.1Zm-52.3-11.2c-.4-25.2-39.7-48.4-65.9-38.6-11.8,4.4-23.6,10-24.3,25.4s7.4,24.7,19.9,30.9c9.2,4.6,18.7,9.1,28.5,11.9,20,5.6,42.1-10.6,41.8-29.6ZM672.7,173c23.8-47.3,59.1-79.7,109.6-96.1-32.8-19.9-58.8-18.1-89.4,4.5C669.5,98.4,661.6,131.8,672.7,173ZM150,301.7c2.7,14.1,5.1,27,7.6,39.8l-6.2,1.9-19.9-56.6c-3.7,7.1-5.3,8.9-5.5,10.8-1.7,14-3.3,28-4.4,42-2.6,33,18.4,47.7,48.6,34.4,19.5-8.5,26.3-35.6,14.2-55.7s-17.6-23.1-34.4-16.6Zm92.4-93.4,9.4,4.4c13.8-15.7,28.4-30.9,41.1-47.5,9.3-12,6.4-25.3-5.5-32.2-16.1-9.6-33.4-7.8-50.2-1.9-2.6.9-5.2,7.1-4.8,10.4C235.3,163.8,239,186,242.4,208.3Zm-8.1,10.5-17.1-79c-38,14.9-56.4,48.8-39.7,72l33.9-31.5,5.2,5.4-26.8,31,17.5,18.6Zm387,33c-20.2-2.5-40.4-4.7-60.5-7.4s-33.1,4-42.9,21.4C546.5,281.9,607.9,272.7,621.3,251.8ZM434.2,354.6c-31.1,2.8-60.2,25.8-67.9,52.8C398,411.7,433,385.2,434.2,354.6ZM807.1,33.8c.4-1.4.7-2.7,1.1-3.9-14.2-7.3-27.7-19.4-45.3-11.3-6.4,3-10.2,11.9-15.3,18l4,3.6ZM706.6,186c19.8-9,28-37.6,17.4-62.6C711.8,143.2,702.1,162.3,706.6,186ZM845.3,68.4c-12.9-18.5-45.9-20.9-71.5-9.7l-.3,4.8Zm6.5-17.9c-.3,1.6-.5,3.3-.8,5,19.4,17.3,43,6.1,64.6,8.7l.7-5ZM300,288.4l3.5-3.9c-5.1-25-18.5-37.8-44.3-35.4Z" fill="#ede7e7"/></svg>