<svg xmlns="http://www.w3.org/2000/svg"><symbol id="banner-1" viewBox="0 0 216 216"><path fill="#cc6f5e" d="M76.8 128.1a7.3 7.3 0 0 1-3-2.2h1.9c3.9-.4 4.1-.8 2.7-3.7-.6-1.3-1.2-2.5-1.7-3.8-1.1-3.4.8-6.4 4.6-7.3s5.5 1 6.9 4.3l1.2 2.4c1.9-2 2.1-4.2 2.9-6.2s-1-1.4-1.9-1.8c-2.7-1.1-5.6-2.1-8.3-3.4s-5.2-2.8-4.6-5.8c3.5-3 7.5-3 12.4-.4-2.5-3.7-5.5-5.6-8.8-6.2-1.2-.3-2.2-.3-2.2.9s-1.4 3.7-1.5 5.6c-1.7 1.7-3.4 3.5-5.2 5.1a4.8 4.8 0 0 1-4.9 1.1c-1.9-.6-2.5-2.1-2.8-3.7s1.2-4.3 1.5-6.4l.9-.3-.2-.2-.8.4c-3.9 1.3-5.8 4.1-7.7 6.8-.6.8-.9 2.5-2.4 1.9s-.2-1.9.3-2.8c1.5-3.4 4.7-5.8 8-7.9s2.4-1.7-.2-2.3-5.6-1.3-5.4-3.9 3.4-3.1 6-3.7a14.6 14.6 0 0 1 15 5c2.7 3.1 7.1 4.3 10.7 6.5 1.2.7 1.6-.3 2-.9a41 41 0 0 1 2.9-4c1.7-2.1 2.9-2.1 4.8-.1 3.9 4.3 3.7 10.4-.5 15s-4.1 4.3-5.2 9.6c2.1.2 4.1-.6 6.2-.7s5.4-.5 6.9 1.8-.3 4.6-3.7 6.1-8 1.7-12.1 1.8a36 36 0 0 0-14.7 3.4zm17.1-28c-.3 1.3.3 2.9.9 4.4s1.3 1.4 2.5.4c3-2.7 3.7-7.8 1.3-11-1.1-1.5-2.1-1.3-3 .1a10.4 10.4 0 0 0-1.7 6.1zm.7 22.4a31.5 31.5 0 0 0 4.4-.3c2.3-.3 4.6-.8 5.8-2.8s.7-2.1-1.3-2.2c-3.7-.1-7.3-.2-10.1 2-1.2.8-3.8 1.3-3.3 2.6s3 .3 4.5.7zm-18.7-29c-7.5 2.3-10.7 7.8-7.1 11.9 4.3-3.3 7.6-6.8 7.1-11.9zm10.1 25a9.6 9.6 0 0 0 0-1.7c-.4-1.8-1.1-3.5-3.9-3.5s-3.4 2.2-2.9 4.4a15.7 15.7 0 0 1 .4 2.3c.1 1.8 2 2.6 3.5 2.7s2.7-1.4 2.9-2.8v-1.4zM84.6 100c-2.5-.1-3.5.5-4.1 1.5s0 2 1.1 2.6a20.1 20.1 0 0 0 4.4 1.8c1.5.4 3.6 2.9 5.1 1.4s-1.4-2.7-2.4-4-2.5-3.1-4.1-3.3zm-7.2-8.4c-2.4-4.2-7.9-6-13.1-4.9-1.2.2-2.6.3-2.5 1.5s1.6 1.4 3 1.4c4.1.2 8.4-.7 12.6 2zM44.5 118l1-.9a4.3 4.3 0 0 0 1.7-.4c3.1-2.8 6.4-3.8 10.2-1.7 1.5 4.1-.5 6.9-3.6 9.4s-3.4 3.2-5.1 4.7c2.1-.3 4.1-.1 6.1-.3 6.6-.4 6.6-.5 8.5-6.3a48.2 48.2 0 0 1 5.6 7.8c-1.2.4-2.6-1.2-3.3 0s.7 2 1.3 3a58.6 58.6 0 0 0 3.6 5.6c.6.9 1.4 1.9 2.8 1.7s1.1-1.8 1.4-2.9l2 2.3c.2 1.8-.3 3.4-2.4 4s-3.4-.7-4.4-2.2-3.9-5.8-5.7-8.8c-.9-1.4-1.7-2.9-3.7-2.7-4.7.3-9.2 1.7-14.1 2.3l7.8 6.7a10.1 10.1 0 0 1 3.1 5c.4 1.7.2 3.5-1.5 4.6a4.5 4.5 0 0 1-5.1.1c-3.4-1.8-5.6-4.9-7.8-7.9-5.4-7.6-5.4-7.6-14.4-5.1a14.8 14.8 0 0 0-5.2 2.3l6.7 4.3c1.4.9 3 1.9 3.5 3.4a5.9 5.9 0 0 1-1.7 6.4c-1.8 1.6-3.7.5-5.5-.6a40.3 40.3 0 0 1-8.4-7.5c-2-2.3-3.2-1.8-4.9.1-3.9 4.3-7.4 8.7-9.4 14.2a40 40 0 0 1-1.8 3.6 3.3 3.3 0 0 1-.5-3.8 31.3 31.3 0 0 1 9.2-15c2.9-2.4 4.3-4.9 3.4-9-1.3-6 1.3-11.1 5.4-13.1s4-.2 4.3 2.3.6 5.8-.2 8.6.4 2.8 2.6 2.1l3.1-.8c6.1-.9 10.9-3.3 12.3-9.7.5-2.2 3.1-3.4 3.1-5.8zm-2.4 10.6c4.3-2 8.2-4.2 11.4-7.5 1-1.1 1.7-2.8.3-4.1a2.4 2.4 0 0 0-3.8.2c-3 3.5-6.3 6.8-7.9 11.4zm12.4 16.1a5.1 5.1 0 0 0-.6-1.5c-3.2-3.5-7-6.4-10.6-9.6-.4-.3-.9-.5-1.3-.1s-.1 1.3.3 1.8c2.2 3.1 4.4 6.3 6.7 9.3a5 5 0 0 0 3.1 2.2c1.4.2 2.4 0 2.4-2.1zm-23 3.5a2.2 2.2 0 0 0-.1-.8c-.9-2.5-9.3-7.2-11.9-6.6-1 .2-1.5.9-.6 1.7a54.3 54.3 0 0 0 9.2 7.4c1.7 1 3.3.5 3.4-1.7zm-13.8-10.6c3.5-3.6 4.1-7.6 3.9-11.9-.1-.7-.1-1.5-.8-1.8s-1.3.4-1.8.9c-3.2 2.8-3.8 7.9-1.3 12.8z"/><path fill="#cc6f5e" d="M72.3 123.4a2.5 2.5 0 0 1-1.4-1.9c.6-2.6 1.6-5.3-.3-8.3l-2.7 4.8-1.9-2.2 3.4-3.8c1.6-1.6 2.8-1.3 3.9.5s1.8 4.9.5 7.5-1 2.3-1.5 3.4z"/><path fill="#cc6f5e" d="M76.8 128.1c4.1 2.8 8.4 2.6 12.9.9s10.3-4.2 16-4.7a35.2 35.2 0 0 1 18.2 2.6c5.6 2.7 11 2.8 16.9 1.9a54.7 54.7 0 0 1 18.5-.1 7.5 7.5 0 0 0 4.9-.9 51.8 51.8 0 0 1 25.3-5.8c-2.4-1.5-4.8-3.1-7.3-4.4-8.7-4.9-17.6-9.6-26.3-14.6-5.5-3.1-10.5-3.1-15.6.6s-9.6 6.5-14.4 9.7a14.9 14.9 0 0 1-2.4 1.4c-2 .6-4.3 1.2-5.4-1s1-3.3 2.6-4.1c6.6-3.5 13.3-6.9 20-10.1s13.2-3.4 19.6 0c17.3 9 34.4 18.3 51.6 27.5a8.6 8.6 0 0 1 3.1 2.9c1.7 2.8 1.4 4.6-1.7 5.8a8.3 8.3 0 0 0-5 5.5l-4 9.6c-4 9.3-11.8 13.8-21.7 15.4-6.5 1.1-12.8.8-18.6-2.8s-8.7-8.4-8.6-15c0-3.2.3-6.4.5-9.6.1-1.2.4-2.4-1.2-2.8-5-1.3-9.9-1.4-14.5 1.4-1.3.7-1.3 1.8-1.4 2.9a40.1 40.1 0 0 1-4.9 17.2c-9.2 16-32.8 20.4-46.1 8.7-6.6-5.8-7.7-13.2-6.6-21 .6-4.2-1-5.1-4.5-5.2l-2-2.3a37.9 37.9 0 0 0-5.8-7.4 48.2 48.2 0 0 0-5.6-7.8c-2-2.5-3.2-5.5-5.9-7.5a96.8 96.8 0 0 0-14.3-18.5c-.3 3.3.7 5.5 1 7.7.6 4.3 2.9 8.4 1.4 12.9l-1 .9c-3.9.8-4.8.2-5-3.4l-1.2-12.7a9.1 9.1 0 0 1-.1-1.7c.1-2.9.9-5.8 3.9-6.8s5.5.5 7.4 2.9L66 115.8l1.9 2.2a7.9 7.9 0 0 0 3 3.5 2.5 2.5 0 0 0 1.4 1.9c.7.5 1 1.4 1.5 2a7.8 7.8 0 0 0 3 2.7zm29.9 40.4c11.3 0 20.8-6.5 24-16.4s-.4-16.8-9.1-19.7a34.5 34.5 0 0 0-24.1.2 16.3 16.3 0 0 0-8.7 7.4c-7.2 13.6 2.2 28.6 17.9 28.5zm72.6-5.5a23 23 0 0 0 23.5-19.6c.6-4.6 1-9.4-4.1-11.8-7.6-3.6-15.6-5.6-24-2.1s-13.4 11.6-11.8 20 6.4 13.2 16.4 13.5zm-18.6-8.3c-.4-5.3-.8-9.6-1.2-14.5-2.9 5.2-2.6 9.8 1.2 14.5zm-26.5-22.2c0 .4.1.8.1 1.2a115.7 115.7 0 0 0 14.5-2.6 3.6 3.6 0 0 1-.2-1zm-5.2 1.4c-1.1-3.9-4.9-6-9.2-5.2zm68.3-7.7l8.8 6.7c-1.1-3.9-4.2-6.4-8.8-6.7zM.9 196.7H216v6.05H.9zm0-136.9H216v6.05H.9z"/></symbol><symbol id="banner-2" viewBox="0 0 216 216"><path fill="#b29b7c" d="M144.4 162c-8.6-.3-17-4.9-23-13.6a72.7 72.7 0 0 1-5.3-10.4c-2-4.5-4.7-6.3-9.4-6.2s-7.2 1.8-9.1 6.4c-2.7 6.8-6.2 13.1-12.5 17.7-17.3 12.7-41.2 4.7-45.8-15.3-.5-2-1.2-3.2-3.2-4s-4.8-4-4.5-6.5a7.7 7.7 0 0 1 6.7-6 6.8 6.8 0 0 0 5-2.7c10.3-14.7 32.9-16.9 46.8-1.2l3.5 4a4.9 4.9 0 0 0 5.8 1.6 20.5 20.5 0 0 1 15.4.2c2.3.9 3.9.1 5.2-1.7a42.2 42.2 0 0 1 10.3-9.9c13.2-8.7 30.4-6 39.7 6.4a7.8 7.8 0 0 0 5.7 3.4 6.9 6.9 0 0 1 6.2 5.4c.8 3.1-.9 5.2-3.5 6.6s-3.6 3.2-4.2 5.7c-3.1 12-14.2 20.1-29.8 20.1zm24-26.2c-.1-11.4-9.5-20.3-21.5-20.2s-21.5 9-21.5 20 9.4 20.2 20.7 20.2 22.3-8.6 22.3-20zM67.1 115.6c-12 0-21.8 9-21.8 20.1s9.5 20 20.3 20.1c13.1 0 22.9-8.6 22.9-20.1s-9.6-20.1-21.4-20.1zm120.3-10.9c3.9 1.8 5.9 5.6 10.3 7 6.6 2.3 8.3 14.2 2.9 18.5-.9.7-1.7.9-2.2-.2-2.1-4.9-5.1-9.4-6.6-14.5a4.4 4.4 0 0 1-.4-2.5c.9-3.5-1.7-4.9-4.2-6.4s-4.9-1.9-7.4-2.8c-5.6-2-10.6-4.8-14.5-9.2-.5-.6-1.4-1.1-1.1-2.4 1.8.4 3 2 5.1 1.9a19.2 19.2 0 0 0 9.1-2.6l2.3-1.5c.7-.5 1.9-1.9 3-1.2s.7 2.3.3 3.5a9.3 9.3 0 0 1-5.3 6c-1.2.6-2.5 1-3.9 1.6 3.8 2.5 7.9 3 12.2 2.7.9 0 1.2-.6 1.5-1.3 3-6.3 9.3-8.7 16.3-6 4.2 1.7 7.2 4.7 9.9 8 1 1.1.6 1.8-.9 1.6-5-.5-9.9.4-14.8.7a19.2 19.2 0 0 1-9.8-1.2 1.4 1.4 0 0 0-1.8.3zm24.9-1.8a24.9 24.9 0 0 0-4.4-4.2 14 14 0 0 0-13-2.2 6.7 6.7 0 0 0-4.3 3.4c-.2.6-.7 1.3-.2 1.9s1.3.1 2-.1l5.2-1.5c.7-.2 1.6-.8 2.2.6l-7.8 2.7c3.7 1.2 12.5.9 20.3-.6zm-19.2 9.7c.3 5.6 3.7 10.2 6.1 15.1.4.9 1 .4 1.4-.1 2.6-3.1 1.8-10.8-1.5-13.5-.6-.5-1.3-1.2-2.1-.8s0 1.4.2 2.1 1.6 3.3.8 5.2c-1.6-2.7-2.1-5.9-4.9-8zm-23.9-17c3 1.4 6.1-.8 8 1.9.1.1.7-.1 1-.3a8.2 8.2 0 0 0 4.5-6.6c-4.2 2.6-8.1 4.8-13.5 5zm15.1 62.3c.3.5.8.3 1.2.1a22.7 22.7 0 0 1 9-3.9c6.3-1.4 12.9-1.5 18.9-4 1.3-.5 1.8.4 1.3 1.5-2.9 5.9-6.2 11.6-13.2 14.2s-11.5.4-14.9-4.3c-.5-.7-1-1.5-2.1-1.3a24.2 24.2 0 0 0-12.4 5.8c1.5 1 2.8.8 4 1 4 .8 7.1 2.8 8.7 6.4.5 1 1.2 2.2.3 3.1s-2 0-2.9-.4a27 27 0 0 0-12.9-2 7.4 7.4 0 0 0-4.9 2.2c-.6.6-.9 2-2 1.2s.1-1.6.5-2.3a37.7 37.7 0 0 1 15-15.4 23 23 0 0 0 7.8-6.7 3.6 3.6 0 0 0 .8-3.3c-2.8-7.8 1.1-15.2 1.8-22.8.1-1.2.9-1.3 2-.9 7 2.8 9.6 16.3 3.5 20.6-4.2 3-6 7.1-9.1 10.6zm5.2-.4c3.3 1.5 6.6.1 9.5 1.8-2.5 1.4-4.8.5-7.1.5s-3.2-1-3.6.4 1.1 2.6 2.5 3.3c4.1 2.2 11.1 1.4 15-1.9s4.7-5.4 6.5-9.2c-7.7 1.9-15.3 2-22.8 5.1zm1.3-19.8c1.4 2.8.3 5.7.6 8.7a5.1 5.1 0 0 0 3.1-3.2c1.8-4.9.8-9.4-2.5-13.5-.4-.5-.9-1.2-1.8-.9s-.5 1-.6 1.5c-.9 4.2-1.7 8.5-2.4 12.7a6.9 6.9 0 0 0 .9 4.9c2.1-3.3 1.8-6.9 2.7-10.2zm-16.3 32.1c-1.7 1.5-4.2.9-6 2.5 5-.4 9.7.7 14.6 2.4-1.6-5.1-7.3-7.6-11.6-5.6.8.7 2.1-.3 3 .7zM26.1 104.4a19.4 19.4 0 0 1-9.8 1.2c-4.9-.3-9.8-1.2-14.8-.7-1.5.2-2-.5-1-1.6 2.8-3.3 5.8-6.3 10-8 6.9-2.7 13.3-.3 16.3 6 .3.7.6 1.3 1.4 1.3 4.4.3 8.4-.2 12.3-2.7-1.5-.6-2.7-1-3.9-1.6a9 9 0 0 1-5.3-6c-.4-1.2-1-2.8.3-3.5s2.1.6 3 1.2l2.3 1.5a19.2 19.2 0 0 0 9.1 2.6c2 .1 3.3-1.5 5.1-1.9.3 1.3-.6 1.8-1.2 2.4-3.8 4.4-8.8 7.2-14.4 9.2-2.5.9-5.1 1.4-7.4 2.8s-5.1 2.9-4.2 6.4a4.4 4.4 0 0 1-.4 2.5c-1.6 5.1-4.5 9.6-6.7 14.5-.4 1.1-1.2.9-2.1.2-5.4-4.3-3.7-16.2 2.9-18.5 4.4-1.4 6.4-5.2 10.3-7a1.4 1.4 0 0 0-1.8-.3zm-2.9-.9l-7.8-2.7c.7-1.4 1.6-.8 2.2-.6s3.5 1 5.3 1.5 1.4.8 2 .1 0-1.3-.2-1.9a6.9 6.9 0 0 0-4.4-3.4 13.9 13.9 0 0 0-12.9 2.2 19.6 19.6 0 0 0-4.4 4.2c7.8 1.5 16.5 1.8 20.2.6zm-5.9 17.1c-.9-1.9.4-3.5.8-5.2s1.1-1.6.2-2.1-1.6.3-2.2.8c-3.2 2.7-4.1 10.4-1.4 13.5.4.5.9 1 1.4.1 2.4-4.9 5.7-9.5 6-15.1-2.8 2.1-3.2 5.3-4.8 8zm15.3-30a7.8 7.8 0 0 0 4.5 6.6c.3.2.9.4 1 .3 1.9-2.7 5-.5 8-1.9-5.5-.2-9.3-2.4-13.5-5zm-2.1 66.7c-3-3.5-4.8-7.6-9-10.6-6.2-4.3-3.5-17.8 3.5-20.6 1.1-.4 1.9-.3 2 .9.7 7.6 4.6 15 1.8 22.8a3.3 3.3 0 0 0 .8 3.3 23 23 0 0 0 7.8 6.7 38.1 38.1 0 0 1 14.9 15.4c.4.7 1.4 1.7.6 2.3s-1.4-.6-2-1.2a7.4 7.4 0 0 0-4.9-2.2 26.8 26.8 0 0 0-12.9 2c-.9.4-2 1.2-2.9.4s-.2-2.1.2-3.1c1.7-3.6 4.8-5.6 8.8-6.4 1.2-.2 2.5 0 4-1a24.2 24.2 0 0 0-12.4-5.8c-1.2-.2-1.6.6-2.1 1.3a12.5 12.5 0 0 1-14.9 4.3c-7-2.6-10.3-8.3-13.2-14.2-.5-1.1 0-2 1.2-1.5 6.1 2.5 12.7 2.6 19 4a22.7 22.7 0 0 1 9 3.9c.4.2.9.4 1.2-.1zM3 152.4c1.8 3.8 3.6 6.8 6.5 9.2s10.9 4.1 14.9 1.9c1.5-.7 3.1-1.8 2.6-3.3s-2.3-.4-3.6-.4-4.6.9-7.2-.5c3-1.7 6.3-.3 9.6-1.8-7.6-3.1-15.1-3.2-22.8-5.1zm24.2-4.5a6.9 6.9 0 0 0 .9-4.9c-.7-4.2-1.6-8.5-2.4-12.7-.1-.5 0-1.3-.7-1.5s-1.3.4-1.7.9c-3.3 4.1-4.4 8.6-2.6 13.5a5.3 5.3 0 0 0 3.2 3.2c.2-3-.8-5.9.6-8.7.9 3.3.5 6.9 2.7 10.2zm16.6 21.2c-4.4-2-10 .5-11.6 5.6 4.8-1.7 9.5-2.8 14.5-2.4-1.8-1.6-4.3-1-6-2.5 1-1 2.2 0 3.1-.7z"/><path fill="#b29b7c" d="M21.8 146.8l.5.6c-.3.5-.8.2-1.2.1zM.5 196.7h215.1v6.05H.5zm0-136.9h215.1v6.05H.5z"/></symbol><symbol id="cart" viewBox="0 0 193.2 161.4"><path d="M182.3 14.1H36.8L35.4 7A9.6 9.6 0 0 0 26-.7H7.6A7.6 7.6 0 0 0 0 6.2a7.4 7.4 0 0 0 7.4 7.9h13.5l27.2 101.7a17 17 0 0 0 16.3 12.6h104.7a7.4 7.4 0 0 0 7.5-6.7 7.2 7.2 0 0 0-7.2-7.7h-98a8.3 8.3 0 0 1-7.9-5.9 2.6 2.6 0 0 1 2.1-3.3l104.9-12.3a10.8 10.8 0 0 0 9.3-8.4l13.1-56.7a10.8 10.8 0 0 0-10.6-13.3zm-5.7 25.5l-7.2 32.3a11 11 0 0 1-9.7 8.6L66.5 90.6a11.1 11.1 0 0 1-12-8.6l-9.7-42.4A11.2 11.2 0 0 1 55.7 26h110a11.2 11.2 0 0 1 10.9 13.6z"/><circle cx="64.7" cy="147.4" r="13.3"/><circle cx="166.3" cy="147.4" r="13.3"/></symbol><symbol id="banner-3" viewBox="0 0 216 216"><path fill="#3c3c3c" d="M1.5 154.3c2.1-7.3 5.7-13.5 13.2-17-5.6-4.8-9.2-10.2-5.9-17.4 2.7-5.6 8.2-7.2 13.7-7.4 8-.3 10.9 5.6 12.6 12.7l8.5-7.7-1.4-2.5c-1-1.7-2.4-3.2-2.9-5.1a28.2 28.2 0 0 1-.9-7.1c.2-3.8 3.7-2.4 5.6-2.8 19.6-4.4 39.2-4 58.8.3 2.1.5 4.4.8 6.1 2 5 3.4 10.5 2.6 16.1 2.8 7.5.3 14.6 0 21.3-3.8 2.2-1.3 5-1.4 7.5-2 2.1-9.6 8.7-9.4 15.2-5.3 3.5 2.3 6.8 2.7 10.7 3 9.6.6 19.3 1.6 28.9 2.8 5.3.7 7.1 4.4 4.6 9.5s-4.5 7.1-6.8 10.7a8.3 8.3 0 0 0-.8 2.2c-1.2 4.6-2.3 9.1-3.8 13.6-5.9 19.1-24.2 25.3-40.5 20.7-10.9-3-17.6-10.3-21.3-21.3a7.3 7.3 0 0 0-1.5 1.7c-8.5 14.1-21.6 21.4-36.8 25.5-4.3 1.1-7.3 2.9-8.9 7.4-2.3 6.1-9.9 10.2-16.3 9.3-2.4-.3-2.5-1.5-1.5-3.3l4.7-8.3c-6.3 0-12.4.6-18.4-.2s-11.7-2.9-17.2-4.4c-1.2 2-2.2 5.6-4.5 7.2s-6.1 2.2-9 1.9c-6.8-.5-5.8-6.4-6.4-11.7l-4 3.6c-7.3 6.9-15.6 5.5-18.3-4.3 0-.2-.3-.3-.4-.5zM50.1 115l4.4-.4c4.4-.5 9.2 1.5 10.5 4.6s-.5 7.4-3.1 10.2-4.6 4.1-6.8 6.2c-.6.7-1.3 1.8-1.1 2.5a2.7 2.7 0 0 0 2.2 1.6c6.4.7 9.2 5 10.9 10.7a4.4 4.4 0 0 0 1.9 2.8c13.1 5.5 35 2.4 40.6-18a83.1 83.1 0 0 0 2.5-13.2c1.2-9.5-2-14.5-10.9-17.5-10.7-3.7-21.7-3.8-32.8-3a29.9 29.9 0 0 0-7.9 1.5c-5.4 1.9-9.2 5.6-10.4 12zm94.9 11.1c-3.1 3.2-3.5 6.2-2.2 10.1 6.2 17.6 23.4 22.1 37.7 18.2 11.8-3.2 18-12.5 20.8-23.9 1.3-5.4 1.2-11.3.8-17-.4-4.1-2.9-7.7-7.9-7.3-10 .9-20 1.3-29.9 2.9s-9 2.5-9.6 11.6a24.3 24.3 0 0 1-1 6.1 11.6 11.6 0 0 1-2.7 4.7c-2.2 2.4-4.2 1.7-5-1.4zm-11.1 13.3a52.3 52.3 0 0 0 3-5.4 26.4 26.4 0 0 0 1.4-6.9 36 36 0 0 0-.4-6.5c-.9-8.4-3.2-10.6-11.3-10.6h-2c-6.3.1-8.4 1.7-9.6 8s-2.4 14.8-3.4 21.3c2.7.3 6.1.9 9.4 1a52.1 52.1 0 0 0 7.9-.2c1.5-.1 2.9-.4 5-.7zM106 147a30.2 30.2 0 0 1-18 10.2 41.4 41.4 0 0 1-20.9-1.9c-2.1 6.1-7.8 6.2-13.1 8.2l2.4.7c11.1 3.1 22.1 1.3 33-1.6.9-.3 1.5-1.8 2.3-2.7 4.9 2.8 26.4-3.9 29.7-9.4-5.2-1-10.9 1.2-15.4-3.5zm-90.4 2l-.6-1.2c1.7-1 3.7-1.8 5-3.1s1.3-3 1.9-4.5c-1.2-.4-2.5-1.2-3.8-1.1-9 .8-16.6 13.8-13.1 22.2 1.6 3.8 4.6 5.5 8.2 4 5.9-2.4 9.7-7.1 12-12.9.6-1.2-.8-3.6-1.8-5s-2.6 0-3.8.3zm16.2-17.4c2.3-5.2.4-12-4.1-15.1s-11.9-1.8-15.7 2.8-2.6 9.1 1.1 13.1a11.4 11.4 0 0 0 15 1.6c-1-3.4-4.6-5.7-4.2-9.8 2.4 2.8 3.7 6.7 7.9 7.4zm22.1 15.5l-.2 1.3a40.5 40.5 0 0 1-5-.4 6.2 6.2 0 0 0-6.6 4.1c-.9 2.8.5 4.7 2.7 6a17.7 17.7 0 0 0 14.7 1.3c2.1-.8 3.7-3.1 5.7-4.8-2.6-2.1-4.5-3.3-6.1-4.9a47.8 47.8 0 0 1-4.7-5.4c-2-2.7-6.1-2.9-9.1.2zm-10.8-2.4c-.1-5.3-8.3-10.2-13.7-8.2-2.4 1-4.9 2.1-5 5.4s1.5 5.2 4.1 6.5a34.2 34.2 0 0 0 5.9 2.6c4.2 1.1 8.7-2.3 8.7-6.3zm97.9-18c5-10 12.3-16.8 22.8-20.3-6.8-4.2-12.2-3.8-18.6 1-4.8 3.6-6.5 10.6-4.2 19.3zM32.6 154c.5 2.9 1 5.7 1.6 8.4l-1.3.4-4.2-12c-.7 1.5-1.1 1.9-1.1 2.3-.3 3-.7 5.9-.9 8.9-.5 7 3.8 10.1 10.1 7.3 4-1.8 5.4-7.6 2.9-11.8s-3.6-4.9-7.1-3.5zm19.2-19.8l1.9.9c2.9-3.3 5.9-6.5 8.5-10s1.4-5.4-1.1-6.8-6.9-1.7-10.4-.4c-.6.2-1.1 1.5-1 2.2.6 4.7 1.4 9.4 2.1 14.1zm-1.7 2.2l-3.6-16.7c-7.9 3.2-11.7 10.3-8.2 15.2l7-6.6 1.1 1.1-5.6 6.6 3.7 3.9zm80.3 7l-12.6-1.6c-4.1-.5-6.8.9-8.9 4.6 6 3.4 18.7 1.4 21.5-3zm-38.8 21.8c-6.5.5-12.5 5.4-14.1 11.1 6.5.9 13.8-4.7 14.1-11.1zm77.3-67.9l.3-.8c-3-1.6-5.8-4.1-9.4-2.4-1.4.6-2.2 2.5-3.2 3.8l.8.7zm-20.8 32.2c4.1-1.9 5.8-8 3.6-13.3-2.5 4.2-4.6 8.3-3.6 13.3zm28.8-24.9c-2.7-3.9-9.6-4.4-14.9-2v1zm1.3-3.8c-.1.4-.1.7-.2 1.1 4.1 3.6 9 1.3 13.4 1.8l.2-1zM63.7 151.2l.7-.9c-1-5.3-3.8-8-9.2-7.5zM.5 59.8h215.1v6.05H.5zm0 136.9h215.1v6.05H.5z"/></symbol><symbol id="facebook" viewBox="0 0 152.3 152.3"><path fill="#fff" d="M0 18.4v115.5a18.4 18.4 0 0 0 18.4 18.4h62.8V93.4H61.7v-23h19.6c0-5.5-.2-10.8.1-16s.7-9.2 2.1-13.4c3.6-11.5 14.1-18.1 27.6-17.9 4.9 0 9.7.4 14.6.5 2.1.1 2.9 1 2.8 3.2-.1 5.7 0 11.5 0 17.6h-12.3c-8.1.1-11.1 3.1-11.2 11.2v14.8h22.7c-1 7.7-1.9 15.1-2.9 22.8H105v55.3c0 1.3-.2 2.5-.3 3.8h29.2a18.4 18.4 0 0 0 18.4-18.4V18.4A18.4 18.4 0 0 0 133.9 0H18.4A18.4 18.4 0 0 0 0 18.4z"/></symbol><symbol id="heart" viewBox="0 0 119.2 136.4"><path fill="#cc6c5a" d="M63.4 135.7S16.1 64.6 4.9 37.5 3.2-3.5 19.5 1.3s43.9 39.6 43.9 39.6l16.7-23.7c3.9-5.6 14.4-16.1 21-17.5s14.1-.2 17.5 9.7c6.8 19.7-41.8 108.2-55.2 126.3z"/></symbol><symbol id="checkmark" viewBox="0 0 216 216"><path fill="#fff" d="M94.7 175.3l-50.4-50.5 13.4-13.4L92 145.6l65.2-95.4 15.6 10.7-78.1 114.4z"/><path fill="#fff" d="M205.6 205.6H10.4V10.4h195.2zM23 193h170V23H23z"/></symbol><symbol id="heart-neg" viewBox="0 0 113.9 132.6"><path fill="#cc6c5a" d="M60.2 131.9l-3.9-5.7c-1.7-2.6-41.7-63-51.6-86.8-8.4-20.2-3.6-30 0-34S15.8-1 23.3 1.2c12.1 3.5 28.9 22.1 36.8 31.4L71 17C73.8 13 84.1 1.5 92.4-.2c10-2 17.6 2.2 20.8 11.6 7.2 21-39.5 102.1-49 114.9zM16.7 9.8a5.9 5.9 0 0 0-4.8 2c-2.8 3-3.8 10.9 1.7 23.9 7.7 18.7 36.2 63 46.8 79.1a541.7 541.7 0 0 0 26.3-48.2c15.2-31.4 18.9-47.5 17.4-52.1s-4.5-6.3-9.8-5.3c-3.6.8-11.8 8.2-15.4 13.4l-18.3 26-4-5.1c-.1-.1-6-7.6-13.6-15.5-12.8-13.3-19.5-16.7-22.4-17.5a12.3 12.3 0 0 0-3.9-.7z"/></symbol><symbol id="instagram" viewBox="0 0 160.2 160.3"><path fill="#fff" d="M45.2 0h70.7a41.4 41.4 0 0 1 7 .6l1.2.2q27.3 6.2 34.8 33c.6 2.3.9 4.8 1.3 7.2v78.2l-.3 1.7c-1.1 4.1-1.6 8.6-3.4 12.4-7.9 17.3-21.7 26.5-40.7 26.8-23.8.3-47.6.1-71.3.1a44.1 44.1 0 0 1-25.4-7.9C6.4 143.2.1 130.7 0 115.1Q0 80.2.1 45a39.2 39.2 0 0 1 .8-9q6-27.2 32.9-34.7l2.5-.5a44.7 44.7 0 0 1 8.9-.8zM146 80.1V45.4a32.9 32.9 0 0 0-1.6-10.8c-4.5-12.7-15.5-20.4-29.3-20.4-23.3 0-46.7-.1-70 .1a33.7 33.7 0 0 0-10.4 1.6c-12.8 4.3-20.4 15.4-20.5 29.2V115a29.5 29.5 0 0 0 1.7 10.6c4.5 12.6 15.3 20.3 29 20.4h70.4a29.7 29.7 0 0 0 25.2-12.8A30.3 30.3 0 0 0 146 115z"/><path fill="#fff" d="M121.4 80.1a41.3 41.3 0 1 1-41.3-41.3 41.5 41.5 0 0 1 41.3 41.3zm-14.2 0a27.1 27.1 0 1 0-27.1 27 27.1 27.1 0 0 0 27.1-27zm16.2-53.3A10.4 10.4 0 1 1 112.7 37a10.4 10.4 0 0 1 10.7-10.2z"/></symbol><symbol id="profile" viewBox="0 0 114.3 164.1"><path d="M87.1 72.7a42.9 42.9 0 1 0-59.9 0C10.9 84.7 0 106.1 0 130.5c0 37.5 25.6 32.6 57.2 32.6s57.1 4.9 57.1-32.6c0-24.4-10.9-45.8-27.2-57.8z"/></symbol><symbol id="sale" viewBox="0 0 359.5 103.2"><path fill="#cc6c5a" d="M151.8 55.9h14.8l-7.4-17.2-7.4 17.2z"/><path fill="#cc6c5a" d="M228.3 0H129a51.6 51.6 0 0 0-51.6 51.6 51.6 51.6 0 0 0 51.6 51.6h99.3a51.6 51.6 0 0 0 51.6-51.6A51.6 51.6 0 0 0 228.3 0zM132 65.9a12.8 12.8 0 0 1-5.6 4.2 22.5 22.5 0 0 1-8.6 1.4 31.5 31.5 0 0 1-8.7-1.2 19.1 19.1 0 0 1-6.8-3.6l2.4-5.3a22.9 22.9 0 0 0 6.2 3.2 22.4 22.4 0 0 0 7 1c2.8 0 4.9-.4 6.4-1.4a4.5 4.5 0 0 0 2.3-4.1 3.8 3.8 0 0 0-2.1-3.5 25.9 25.9 0 0 0-6.9-2.3 42.6 42.6 0 0 1-8.2-2.5 12.3 12.3 0 0 1-4.8-3.7 9.8 9.8 0 0 1-1.6-5.6 11 11 0 0 1 2-6.4 12.8 12.8 0 0 1 5.5-4.4 20.5 20.5 0 0 1 8.1-1.5 26.4 26.4 0 0 1 8.1 1.2A17.4 17.4 0 0 1 133 35l-2.4 5.3a19.1 19.1 0 0 0-12-4.2 11 11 0 0 0-6.1 1.5 5.2 5.2 0 0 0-2.3 4.4 4 4 0 0 0 2 3.6A24.4 24.4 0 0 0 119 48a43.9 43.9 0 0 1 8.3 2.5 11.6 11.6 0 0 1 4.9 3.6 8.8 8.8 0 0 1 1.7 5.5 11.2 11.2 0 0 1-1.9 6.3zm41.1 5.1l-4-9.4h-19.7l-4 9.4h-7.5l18.3-40.3h6L180.5 71zm41.3 0h-26.2V30.7h7.4V65h18.8zm34.9-34.5h-19.8v11.1h18.6v5.8h-18.6v11.8h19.8V71h-27V30.7h27zm41.1-.1c2.5-7.6 8-20.7 18.8-28.5a9 9 0 0 1 7.4-1.8c3.1.7 5.8 3.1 2.1 10.7-5.7 11.8-15.4 12.4-25.7 21.3a1.6 1.6 0 0 1-2.6-1.7zm8.7 14.2c9.7-6.3 30.8-18.1 49.5-16.1a13.3 13.3 0 0 1 8.4 4.2c2.7 2.9 4.4 7.4-1.3 12.8a8.9 8.9 0 0 1-7.1 2.6c-9-.6-33.2-1.8-48.5-.6a1.6 1.6 0 0 1-1-2.9zm2.6 16c10.9 1.7 36.9 7.1 44 21.2 0 0 2.3 7.1-3.8 9.9a9 9 0 0 1-9.3-1.2 403.5 403.5 0 0 1-32.2-27.1 1.6 1.6 0 0 1 1.3-2.8zM68.6 32.9C65.9 25.2 60.4 13.3 50.3 6a9 9 0 0 0-7.4-1.8c-3.1.7-5.8 3.1-2.1 10.7 5.5 11.3 14.7 12.3 24.5 20.3a2.1 2.1 0 0 0 3.3-2.3zm-9.7 14.8c-10.3-6.5-30.2-17-48-15.1a13.3 13.3 0 0 0-8.4 4.2c-2.7 2.9-4.4 7.3 1.3 12.8a9.6 9.6 0 0 0 7.1 2.6c8.7-.6 31.4-1.8 46.7-.7a2.1 2.1 0 0 0 1.3-3.8zm-2.6 17.2c-11.6 2-35.7 7.5-42.5 21 0 0-2.3 7 3.8 9.9a9 9 0 0 0 9.3-1.2c6-4.6 19.6-15.3 31.1-26.1a2.1 2.1 0 0 0-1.7-3.6z"/></symbol><symbol id="search" viewBox="0 0 137 150"><path fill="#fff" d="M134.4 130.3l-28.7-34.7a59.2 59.2 0 1 0-17.9 15.1l28.5 34.5a11.3 11.3 0 0 0 15.9 1.5l.7-.6a11.2 11.2 0 0 0 1.5-15.8zM22.7 58.6a36.7 36.7 0 1 1 36.6 36.7 36.6 36.6 0 0 1-36.6-36.7z"/></symbol><symbol id="twitter" viewBox="0 0 185.8 152.4"><path fill="#fff" d="M55.7 119.3C39 131.8 20.9 136.7 0 135.4l3 1.9c29.6 16.7 60.6 19.5 92.6 8.6 44.4-15 70.8-58.4 71.7-101 .1-4.8.9-8.1 5-11.3s9-9.2 13.5-13.9l-.7-.6-19.1 5.1c6.6-5.9 12.2-12.1 14.7-20.3l-20 7.4c-2.3.8-4.2.4-6.3-1.5a38.3 38.3 0 0 0-60.3 12.3c-3.7 7.9-4.2 16.2-2.8 25.1C59.1 45 33 31.5 11.8 6.9c-8.7 20.3-5.2 37 11.3 51l-.7.8-15.9-4.4c1.4 19.2 11.4 31.4 29.2 38.2l-14.8.7c2.5 12.8 16.1 23.3 34.8 26.1z"/><path fill="#fff" d="M55.7 119.3C37 116.5 23.4 106 20.9 93.2l14.8-.7c-17.8-6.8-27.8-19-29.2-38.2l15.9 4.4.7-.8c-16.5-14-20-30.7-11.3-51C33 31.5 59.1 45 91.3 47.2c-1.4-8.9-.9-17.2 2.8-25.1a38.3 38.3 0 0 1 60.3-12.3c2.1 1.9 4 2.3 6.3 1.5l20-7.4c-2.5 8.2-8.1 14.4-14.7 20.3l19.1-5.1.7.6c-4.5 4.7-8.5 10-13.5 13.9s-4.9 6.5-5 11.3c-.9 42.6-27.3 86-71.7 101-32 10.9-63 8.1-92.6-8.6l-3-1.9c20.9 1.3 39-3.6 55.7-16.1z"/></symbol><symbol id="home-1" viewBox="0 0 1080 1080"><path fill="#cc6c5a" d="M355.8 827.1a26.1 26.1 0 0 1-13.6-48.3c32-19.6 47.3-50.2 54-68.8-25.8-10.3-48.8-23.4-68.4-39.2a211.7 211.7 0 0 1-51-59c-24.1-41.9-32.3-90.7-23.8-141.2 9.8-58.1 40.8-112.5 87.4-153A277.6 277.6 0 0 1 423 268c32.5-12.5 67.4-19 103.9-19.5 54.8-.7 103.8 7.1 145.7 23.1a246.2 246.2 0 0 1 125 353.3 225.4 225.4 0 0 1-68.7 74.2c-22.8 15.6-49.1 27.3-77.9 34.8a317.4 317.4 0 0 1-102.5 9c-31.8 30.2-67.2 52.7-105.5 67a275.2 275.2 0 0 1-86.4 17.2zm177.8-541.9h-6.3c-62.2.8-118.6 21.6-162.8 60.1a233.5 233.5 0 0 0-49.9 60.9 212.8 212.8 0 0 0-25.4 70.5c-7.1 42-.3 82.4 19.5 116.8a173.5 173.5 0 0 0 42.1 48.7c18.9 15.1 41.6 27.6 67.5 36.9a26.2 26.2 0 0 1 16.3 31.6c-4.3 15.2-16.1 47.8-43.5 75.7a246.1 246.1 0 0 0 39.1-10.9c34.9-13 67.2-34 96.2-62.3a25.9 25.9 0 0 1 21-7.3c10.9 1.2 50 4.1 94.3-7.5 55.3-14.5 97.1-45.4 124.2-91.9a207.9 207.9 0 0 0 27.6-87.4 211.3 211.3 0 0 0-11.4-87.3 208.8 208.8 0 0 0-122.6-125.9c-35.9-13.8-78.3-20.7-125.9-20.7zM399.2 700.8l17.7 5z"/><path fill="#cc6c5a" d="M587.3 617.2c-5.7-4.5-8.5-11.5-8.5-21.1l.4-5c3.3-30.8 7.3-63 11.9-96.4s8.6-59.1 11.9-77.1l-35 9.9-5.4.9a15.9 15.9 0 0 1-13.5-6.8 25 25 0 0 1-5-15.2l.5-4.1c.6-5.7 2.4-10.3 5.4-13.9s8.8-7.2 17.3-10.8 21.3-7.5 38.4-11.7l18.9-4.5a83 83 0 0 1 17.1-2.2c8.7 0 15.2 2.2 19.5 6.7s6.6 10.8 6.6 18.9a56.3 56.3 0 0 1-1.4 11.7q-7.2 35-27.4 199.6c-2.4 18.5-13 27.8-31.9 27.8a31 31 0 0 1-19.8-6.7zm-89-133.7l-7.8 27.6h17.3c8.3 0 12.4 4.4 12.4 13.1 0 4.4-1.1 7.9-3.2 10.3s-5.2 3.7-9.2 3.7h-25.2l-4.5 15.3a20.7 20.7 0 0 1-7 10.6 17.3 17.3 0 0 1-10.4 3.6 12.3 12.3 0 0 1-8.6-3.2c-2.3-2.1-3.5-5.1-3.5-8.9a20.2 20.2 0 0 1 .7-5.2l3.6-12.2H425l-4.5 15.3a20.7 20.7 0 0 1-7 10.6 17.3 17.3 0 0 1-10.4 3.6 11.9 11.9 0 0 1-8.5-3.2c-2.4-2.1-3.6-5.1-3.6-8.9a20.2 20.2 0 0 1 .7-5.2l3.6-12.2h-6.9c-4 0-7.1-1.2-9.3-3.7s-3.3-5.9-3.3-10.3 1.1-7.5 3.3-9.8 5.3-3.3 9.3-3.3h14.7l8.1-27.6h-13.3c-4 0-7.1-1.2-9.3-3.7s-3.3-5.9-3.3-10.3 1.1-7.6 3.3-9.8 5.3-3.3 9.3-3.3h21.2l4.5-15.7c1.3-4.6 3.5-8.1 6.8-10.4a17.4 17.4 0 0 1 10.3-3.4 14.7 14.7 0 0 1 9.2 2.9 10 10 0 0 1 3.7 8 16.1 16.1 0 0 1-.7 4.3l-4.1 14.3h27.9l4.5-15.7a17.6 17.6 0 0 1 6.8-10.4 17.4 17.4 0 0 1 10.3-3.4 14.7 14.7 0 0 1 9.2 2.9 10 10 0 0 1 3.7 8 16.1 16.1 0 0 1-.7 4.3l-4.1 14.3h11c8.2 0 12.3 4.3 12.3 13.1 0 4.4-1 7.9-3.2 10.3s-5.2 3.7-9.1 3.7zm-29.5 0h-28.1l-7.8 27.6h27.8z"/><path fill="#cc6c5a" d="M997.1 983.3H108.8c-12 0-24.1-.3-36.2 0h-1.5l17.5 17.5V112.5c0-12 .3-24.1 0-36.2v-1.5L71.1 92.3h888.3c12 0 24.1.3 36.2 0h1.5l-17.5-17.5v888.3c0 12-.2 24.1 0 36.2v1.5c0 9.2 8.1 17.9 17.5 17.5s17.5-7.7 17.5-17.5V112.5c0-12.1.2-24.1 0-36.2v-1.5a17.7 17.7 0 0 0-17.5-17.5H108.8c-12.1 0-24.1-.2-36.2 0h-1.5a17.7 17.7 0 0 0-17.5 17.5v888.3c0 12-.2 24.1 0 36.2v1.5a17.7 17.7 0 0 0 17.5 17.5h888.3c12 0 24.1.2 36.2 0h1.5c9.2 0 17.9-8 17.5-17.5s-7.7-17.5-17.5-17.5z"/><path fill="#cc6c5a" d="M512.2 140.1v67.7c0 9.2 8 18 17.5 17.5s17.5-7.7 17.5-17.5v-67.7c0-9.2-8.1-18-17.5-17.5s-17.5 7.7-17.5 17.5zM876.4 501h67.7c9.2 0 17.9-8.1 17.5-17.5s-7.7-17.5-17.5-17.5h-67.7c-9.2 0-18 8-17.5 17.5s7.6 17.5 17.5 17.5zm-734.5 0h67.7c9.2 0 18-8.1 17.5-17.5s-7.7-17.5-17.5-17.5h-67.7c-9.2 0-18 8-17.5 17.5s7.7 17.5 17.5 17.5zm642.8-272.8l-45.4 50.3m32.4-62l-45.4 50.3c-6.1 6.8-6.1 18.7 1.2 24.7s18.2 6 24.8-1.2l45.4-50.3c6.1-6.8 6-18.7-1.3-24.8s-18.1-6-24.7 1.3zm-505 6.8l50.3 45.4m-62-32.4l50.3 45.4c6.7 6.1 18.6 6 24.7-1.3s6-18.1-1.3-24.7l-50.3-45.4c-6.8-6.2-18.7-6.1-24.7 1.2s-6 18.2 1.3 24.8z"/></symbol><symbol id="home-2" viewBox="0 0 1080 1080"><path fill="#cc6c5a" d="M817.7 915.6l-6-202.8a6.5 6.5 0 0 0-6.4-6.5l-433.7-1.7-123.2-.5a6.6 6.6 0 0 0-6.5 6.5q3 101.4 6.1 202.8a6.5 6.5 0 0 0 6.4 6.5l434.6 1.7 122.2.4a6.4 6.4 0 0 0 4-1.3 5.8 5.8 0 0 0 2.5-5.1zm-530.4-32.9q-2.2-72.7-4.4-145.6l31 1 6.5.2-1.2 60.5c-.1 4.7 4.2 6.8 8.2 6.3l27.8-3.8c2.6-.3 5-3.7 4.8-6.2l-4.5-56.3 32.1.8c-.7 11.6-1.5 23.2-2.2 34.8-.2 3.2 3.2 6.9 6.5 6.5l28.4-3.6c3.1-.3 7-2.6 6.5-6.4-1.3-10.2-2.6-20.4-4-30.7l34.2-.2-.6 59.8a6.6 6.6 0 0 0 6.5 6.5l27.2-.3c3.3 0 6.6-2.9 6.4-6.4-1-19.9-2.1-39.7-3.2-59.6H523c-.7 11.9-1.5 23.8-2.3 35.6-.2 3.4 3.2 6.6 6.5 6.5l28.9-.9c4.6-.1 6.9-4 6.3-8.2-1.6-10.6-3.1-21.2-4.6-31.9l32.5.2c-.5 19.4-1.1 38.8-1.6 58.1a6.6 6.6 0 0 0 6.5 6.5l28.2 1.1c3.3.1 6.7-3.1 6.5-6.5q-2.1-28.9-4.1-57.9l150.9 1.1q1.9 70.3 3.7 140.9l-387.9-1.5z"/><path fill="#cc6c5a" d="M671.1 848.9l.6.6a52.6 52.6 0 0 0 57.3 9.2c19.2-8.7 28.8-29.6 26.2-50.1s-17.7-38.4-38.4-43.1-41.9 2.4-53.2 20.1c-12.6 19.5-8.6 46.1 6.9 62.7a1.7 1.7 0 0 0 .6.6zm43-42.4c4.6 5.3 5.1 10.6-.1 15.8s-11.8 4.4-16.8-1.2-4.7-10.2-.3-15 11.5-4.8 17.2.4zm220.6-399.1c-24.2-73.2-48.6-146.5-71.5-215.4-.4-1.2-.8-2.7-1.2-4.2-1.5-5.7-3.2-12.1-8.3-16.3s-17.4-9.7-26.6-7.7-15.1 15.8-16.2 22 1.1 12.6 3.1 18.1c.5 1.2.9 2.4 1.3 3.6l30.1 91c13.8 41.4 28 84.3 41.8 126.4 3.5 10.7 4.5 16.3 3.5 19.8a11.5 11.5 0 0 1-2.6 4.4c-10.3-35.1-33.8-57.9-68.7-66.3-37.9-9.1-70.8-.3-95.9 25.5-25.8-21.1-51.5-31-76.4-29.3-26.8 1.9-52.5 17.1-76.6 45.2-2.8 3.4-14.9 6.7-31.7 6.1s-30.2-5-33.2-9c-17.5-23.5-39.4-36.7-67-40.3-33.2-4.4-61.7 4.7-84.7 27.2-25.8-25.9-57.9-34.3-95.6-25.2-33.7 8.1-56.3 29-67.4 62.4-1.4-6.2 0-13.1 3-21.9 24.7-73.4 49.6-148 73.9-221.8 2.7-8.1 5.6-19.9 0-28.8-2.2-3.6-6.9-8.2-16.2-9.4-11.2-1.5-27 11-30.6 21.5-24.6 70.7-50.3 147.5-78.6 235-10.7 32.8 2.7 68 31 81.8 16.6 8.1 28.3 19.5 38 37a70.5 70.5 0 0 0 14.8 18.3l14.6 13c31.2 27.6 63.3 56.1 96.2 82.8 9 7.3 29.2 3.5 37.6-2.9 21.8-16.6 42.9-34.7 63.3-52.3l15.5-13.3c30.9-26.4 60.3-57.2 67.3-103h36.5c5.6 34.5 23.2 63.9 55.1 91.8 16.2 14.3 32.9 28.4 49.1 42.1 14 11.8 28.5 24.1 42.6 36.4 6.5 5.6 13.1 8.5 19.7 8.5s14.3-3.3 21.4-10 16.2-14.2 24.3-21l8.9-7.4c6.5-5.5 13.2-10.9 19.6-16.2 31.2-25.4 63.5-51.7 83.2-90.4.9-.9 4.4-2.4 6-3.1l.7-.3c48.7-20.6 63.6-53.8 46.9-104.4zm-239 48.2l.7 1c7.1 10.8 16 21.9 27.6 21.9h.3c11.6-.2 20.2-11.4 26.9-22.4 12.1-19.4 26.2-27.4 45.9-26.1 16.6 1.1 30.2 8.7 37.4 20.8s7 24.6.9 38c-7.3 16-19.9 32.9-36.4 48.8s-35.7 31.7-55.2 47.7l-20 16.5c-6.9-5.8-13.8-11.4-20.6-16.9-19.9-16.4-38.8-31.8-56.4-48.9a176.7 176.7 0 0 1-35.6-49.5c-8.9-18.8-2.3-38.2 16.7-49.6a52.6 52.6 0 0 1 26.2-7.2c12.2 0 23.9 4.5 32.1 13.2 3.5 3.6 6.4 8 9.5 12.7zm-227.5 3.7a12.1 12.1 0 0 1 .5 1.8 14.2 14.2 0 0 1 .4 2 32.7 32.7 0 0 1 .7 6.2 53.1 53.1 0 0 1-5 22.9l-1.9 4.2c-1.1 2.3-2.1 4.3-3.2 6.2s-1.5 2.7-2.2 4l-1.2 1.9c-1.5 2.2-3 4.3-4.5 6.1a21.6 21.6 0 0 1-2.5 2.7l-1.2 1.2-6 5.6-12 11.1-24.5 22c-4.1 3.7-8.2 7.4-12.4 11l-16.4 14.6-22.3 19.8-14.8-12.4-8.3-7c-10.1-8.4-18.5-15.5-26.8-22.7-1.3-1-2.4-2.1-3.6-3.1l-.8-.7-3.3-2.9-.8-.7-2.9-2.5-1.1-1-1.9-1.7c-5.6-5.1-10.8-9.8-15.6-14.4a.1.1 0 0 0-.1-.1h-.1a25 25 0 0 1-2.3-2.3 9.4 9.4 0 0 1-1-1 18.5 18.5 0 0 1-1.4-1.4l-.9-.9-1.5-1.6-.7-.8-1.6-1.8a27.5 27.5 0 0 1-2.2-2.6c-1.5-1.7-3-3.5-4.4-5.3s-4.2-5.6-6.1-8.4a128.6 128.6 0 0 1-10-17.5 49.4 49.4 0 0 1-4.5-14.5 25.6 25.6 0 0 1-.3-3.9 10.8 10.8 0 0 1 0-1.8v-1.9c.1-1.2.2-2.4.4-3.5a35.9 35.9 0 0 1 .8-3.5 34.6 34.6 0 0 1 6.4-12.5 33.3 33.3 0 0 1 2.5-2.8 46.3 46.3 0 0 1 11.2-8.6 56.9 56.9 0 0 1 14.7-5.8l2.1-.4 4.1-.6 4.7-.3 3.4.2 2 .2 3.9.6a46.5 46.5 0 0 1 25.9 16.1l.2.3 8.3 9.7 1.1 1.3 2 2.3 1 1.2a11.4 11.4 0 0 1 1.5 1.6c6.8 7.1 12.8 11.9 20.3 11.9s13.9-5.2 18.9-10.4c.9-.9 1.9-1.9 2.9-3.1l2-2.2 4.3-5.1 6.1-7.3a48.4 48.4 0 0 1 17.1-13.3l1.9-.8 3.9-1.4a53.9 53.9 0 0 1 8-1.6 47.7 47.7 0 0 1 23.1 3.5c1.4.6 2.9 1.2 4.2 1.9a35 35 0 0 1 4.2 2.4 48.9 48.9 0 0 1 5 3.5l1.5 1.3a39.7 39.7 0 0 1 5.9 6.4l1.3 1.9 1.3 2.3.8 1.6a15.4 15.4 0 0 1 .8 1.9 23.1 23.1 0 0 1 1 2.7z"/><path fill="#cc6c5a" d="M436.6 481.3l-.9-2.6a5.9 5.9 0 0 0-.4-.8 2 2 0 0 0-.4-.8v-.2a3.5 3.5 0 0 1-.5-.8l-.4-.7-.6-.8a1 1 0 0 0-.4-.5l-.7-.9-.4-.4-1.1-1-1.3-.9a26.9 26.9 0 0 0-2.9-1.6l-1.8-.7-1.8-.7-2.7-.8a40.5 40.5 0 0 0-4.8-.9l-1.9-.2h-.9a24.7 24.7 0 0 0-3.9.1 14.9 14.9 0 0 0-8.5 3.4c-23.4 21.2-41.5 39.6-57.2 57.9l-1.1 1.5a19 19 0 0 0-3.5 11.5v1.5a5.9 5.9 0 0 1 .2 1.3 1.7 1.7 0 0 1 .1.7c.2.6.3 1.2.5 1.9a.3.3 0 0 0 .1.2 12.7 12.7 0 0 0 .6 1.8c.2.6.5 1.2.7 1.7l.2.4.5.9a21.1 21.1 0 0 0 1.8 2.7 21.1 21.1 0 0 0 1.9 2.3 27.5 27.5 0 0 0 19.9 8.7h1.1l.7-.2h.4a18.4 18.4 0 0 0 4.9-1 15.4 15.4 0 0 0 3.1-1.7l1-.9 11.1-10.8 20.7-20.7 6.9-6.9 5.3-5.5.3-.3 6.6-7 7.5-8a19.6 19.6 0 0 0 1.9-2.8l.6-1.7a8.3 8.3 0 0 0 .6-2.5 1.9 1.9 0 0 0 .1-.8 16.4 16.4 0 0 0 .2-2.3v-1a31.8 31.8 0 0 0-.9-7.4c-.2-.6-.3-1.2-.5-1.7zm369.8 0a20 20 0 0 0-1-2.6l-.3-.8-.4-.8c0-.1 0-.1-.1-.2a3.5 3.5 0 0 0-.5-.8l-.3-.7a2.7 2.7 0 0 0-.7-.8l-.3-.5-.8-.9-.3-.4-1.1-1h-.1l-1.3-.9a19.9 19.9 0 0 0-2.9-1.6l-1.7-.7-1.8-.7-2.8-.9a35.5 35.5 0 0 0-4.7-.9l-1.9-.2h-1a23.8 23.8 0 0 0-3.8.1 14.6 14.6 0 0 0-8.5 3.4c-23.4 21.2-41.6 39.6-57.2 57.9l-1.1 1.5a19.1 19.1 0 0 0-3.6 11.5c0 .5.1.9.1 1.3v.2c.1.4.1.9.2 1.3s.1.5.1.7a18 18 0 0 0 .5 1.9v.2a13.4 13.4 0 0 0 .7 1.8 8.7 8.7 0 0 0 .7 1.7l.2.4.5.9c.5.9 1.1 1.8 1.7 2.7a22 22 0 0 0 2 2.3 27.5 27.5 0 0 0 19.9 8.7h1l.8-.2h.4a18.4 18.4 0 0 0 4.9-1 14.6 14.6 0 0 0 3-1.7l1.1-.9 11.1-10.8 20.7-20.5 6.9-6.9c1.7-1.9 3.5-3.7 5.2-5.5l.3-.3c2.4-2.4 4.6-4.7 6.7-7l7.5-8a13.4 13.4 0 0 0 1.8-2.8 12.2 12.2 0 0 0 .7-1.7c.2-.7.4-1.5.6-2.5s.1-.5.1-.8a16.4 16.4 0 0 0 .2-2.3v-1a48.2 48.2 0 0 0-.9-7.4c-.2-.7-.3-1.3-.5-1.8z"/><path fill="#cc6c5a" d="M1003 983.3H114.7c-12 0-24.1-.3-36.2 0H77l17.5 17.5V112.5c0-12 .3-24.1 0-36.2v-1.5L77 92.3h888.3c12 0 24.1.3 36.2 0h1.5l-17.5-17.5v888.3c0 12-.2 24.1 0 36.2v1.5c0 9.2 8.1 17.9 17.5 17.5s17.5-7.7 17.5-17.5V112.5c0-12.1.2-24.1 0-36.2v-1.5a17.7 17.7 0 0 0-17.5-17.5H114.7c-12 0-24.1-.2-36.2 0H77a17.7 17.7 0 0 0-17.5 17.5v888.3c0 12-.2 24.1 0 36.2v1.5a17.7 17.7 0 0 0 17.5 17.5h888.3c12 0 24.1.2 36.2 0h1.5c9.2 0 18-8 17.5-17.5s-7.7-17.5-17.5-17.5z"/></symbol><symbol id="home-3" viewBox="0 0 1080 1080"><path fill="#cc6c5a" d="M999.6 983.3H111.3c-12.1 0-24.2-.3-36.2 0h-1.6l17.5 17.5V112.5c0-12 .4-24.1 0-36.2v-1.5L73.5 92.3h888.3c12.1 0 24.2.3 36.2 0h1.6l-17.5-17.5v888.3c0 12-.2 24.1 0 36.2v1.5c0 9.2 8 17.9 17.5 17.5s17.5-7.7 17.5-17.5V112.5c0-12.1.2-24.1 0-36.2v-1.5a17.7 17.7 0 0 0-17.5-17.5H111.3c-12.1 0-24.2-.2-36.2 0h-1.6A17.8 17.8 0 0 0 56 74.8v888.3c0 12-.2 24.1 0 36.2v1.5a17.7 17.7 0 0 0 17.5 17.5h888.3c12.1 0 24.2.2 36.2 0h1.6c9.1 0 17.9-8 17.5-17.5s-7.7-17.5-17.5-17.5z"/><path fill="#fff" d="M949.4 422.7l-98.1 120.1 111.6 64.6s54.2-10 54.2-74.1-67.7-110.6-67.7-110.6z"/><path fill="#cc6c5a" d="M888.6 670.5l-1.5-3.3a43.5 43.5 0 0 1-2.3-5.8c-9.9-38.4-30.6-70.1-61.5-94a407.2 407.2 0 0 1-34.9-30.1c-18.5-17.9-37.1-36.5-55.1-54.4l-35.6-35.3c-14.1-13.9-32.3-21.2-51.2-20.7a66.3 66.3 0 0 0-47.8 22.3c-3.9 4.3-3.9 10.4-4 15.8a47 47 0 0 1-.2 5.5 6.1 6.1 0 0 0 5.3 6.7l4.8.9c4.4.9 9.4 1.9 14.3.6s7.1-3.6 9.9-5.8 4-3.2 5.3-3.4l5.7-1c6.8-1.1 19.5-3.3 22.4-.7 19.3 17.8 37.2 37.4 54.5 56.3l8.5 9.3a166.2 166.2 0 0 0-153.2 96c-4.7-1.9-9.4-4-13.9-6-14.5-6.4-29.4-12.9-44.6-12.9s-29.8 6.6-44.2 13c-4.5 2-9.1 4.1-13.7 5.9-16.4-32.9-38.8-57.7-66.7-73.6-25.5-14.7-55.8-22.1-90.2-22.1H297l7.9-8.1 39.1-39.5c14-13.9 21.5-21.2 28.3-22.1s16.3 4.1 33.4 13.2c5 2.6 10.8 1.7 16 .8a38.7 38.7 0 0 1 5.4-.6 6.2 6.2 0 0 0 5.8-6.9 31.4 31.4 0 0 1-.3-5.5c-.1-5.4-.2-11.5-4-15.9a66.6 66.6 0 0 0-47.2-22.2 69.6 69.6 0 0 0-50.5 19.4c-7.2 6.9-14.3 14-21.2 20.9s-12.5 12.6-18.9 18.7c-7.9 7.7-15.8 15.7-23.4 23.5-17.8 18-36.1 36.7-56.2 52.2-50.2 38.6-74.3 85.7-73.8 143.9a159.3 159.3 0 0 0 14.4 64.7 162.6 162.6 0 0 0 37.6 52.2 165.1 165.1 0 0 0 55.9 34.7 163.3 163.3 0 0 0 57.8 10.5q4.8 0 9.6-.3a167.5 167.5 0 0 0 66.7-17.8 169.6 169.6 0 0 0 52.2-41.1c29.4-34.5 43.2-78 38.7-122.5a26 26 0 0 1 4.3-16c14.2-19.6 33.3-27.6 51.2-21.5 21.7 7.5 31.7 23.5 31.5 50.2-.5 41.6 13.2 79.5 39.4 109.7s62.5 49.8 104.9 56.8c36.8 6.1 75.6-2.5 109.4-24.1s58.7-53.9 70.4-90.9c1.6-5.2 3.3-10.5 5-15.6l2.4-7.2.3-.9v-54.7zm-37.3 28.8a128.9 128.9 0 0 1-37 91.5 126.8 126.8 0 0 1-90.5 37.7 128.4 128.4 0 0 1-129.7-129.1c.3-71 58.1-128.8 128.8-128.9h.1a128.9 128.9 0 0 1 128.3 128.8zm-417.6-.1a127 127 0 0 1-37.5 90.9 129.2 129.2 0 0 1-92.2 38.4h-.4a127.2 127.2 0 0 1-90.6-37.8 129.3 129.3 0 0 1 91.3-220.1h.3c33.8 0 65.9 13.4 90.5 37.9s38.4 56.8 38.6 90.7z"/><path fill="#cc6c5a" d="M272.3 595.7c-5.4-1.7-11.4-3.6-17.1-1.6-17.5 6.2-35 21.5-48.1 41.8s-20.4 44.2-20 65.1v2.5l1.8 1.7 1.3 1.7c3 4 7.6 9.9 14.2 10.2h.3c5.1 0 9.8-3.9 12.2-6.3s6.3-6.8 6.9-12.1c3.5-33.4 18.3-56.1 46.6-71.5 5.5-3 7.7-9.6 9.6-15.3.8-2.3 1.5-4.4 2.3-6.1a6 6 0 0 0-4.3-8.5zm423.4 0c-5.4-1.7-11.4-3.6-17.1-1.6-17.5 6.2-35 21.5-48.1 41.8s-20.4 44.2-19.9 65.1v2.5l1.8 1.7 1.3 1.7c3 4 7.6 9.9 14.2 10.2h.3c5.1 0 9.8-3.9 12.2-6.3s6.3-6.8 6.9-12.1c3.5-33.4 18.4-56.1 46.6-71.5 5.5-3 7.7-9.6 9.7-15.3a47 47 0 0 1 2.2-6.1 6 6 0 0 0-4.3-8.5zm163-34c-6.3 10.9-11.7 21.7-18.5 31.6a89.4 89.4 0 0 1-17.6 19.2c-15.3 11.9-35.1 6.5-41-12.1a106.5 106.5 0 0 1-4.4-37.2c1.2-23.1 8.5-44.8 19.8-65 2.2-4.1 2.4-7-.4-10.7s-4.5-7.1-6.7-10.7c-7.2-12.2-6.5-24.3 1.2-35.9 10.6-15.7 21.3-31.3 32.3-46.6 8.1-11.4 19.4-15.9 33.3-13.3 20.7 3.9 41.7 6.9 62.1 12.2 10.8 2.9 21.2 8.9 30.6 15.3 33.1 22.1 65.6 45.1 98.3 67.7 17.5 12.1 21.2 31 9.1 48.5q-30.6 44.7-61.6 89.2c-12 17.2-30.6 20.5-47.9 8.6L865 565.8zm-12.6-7.1c-7.8-7.6-14.2-13.8-20.5-20.2s-7.7-15.5-1.6-24.7c10.2-15.3 20.1-30.3 40.8-32 2.4-.2 4.8-1.7 6.9-3 10.7-6.5 14.8-20.4 9.6-32s-17.8-16.6-29.1-13.5-19.1 14.2-17.3 26.1c6.1-2 12.1-4.4 18.3-5.9 4.7-1.1 10.1.3 10 6-.1 2.8-4.3 7.6-7.2 8.1-14.7 2.7-25.2 11.3-33.9 22.3-19 24.3-29 52.1-30.9 82.7a77.6 77.6 0 0 0 2.3 23.5c3.2 13.2 13.2 16 23.3 6.9a50 50 0 0 0 8.9-10.1c7.2-11.5 13.9-23.2 20.4-34.2zm114.9-.3c9.2 18 11.5 18.2 29.7 1.6l7.7 6.2c8.1 6.7 10.2-1.3 14-5.6s3.9-9.2-2.3-12-8.7-8-7.6-16c2.7-19.9-15.2-33.2-33.8-25.9-4.9 2-9.3 5.2-14 7.8s-7.1 4.9-11 6.1-7 .5-9.2-1.2-2.3-6.3-1.1-8.1a60.2 60.2 0 0 1 11.4-12.8c2.8-2.5 6.6-3.8 9.9-5.6-7.8-18.1-10.2-18.3-30.2-2-2.4-2.1-5-4.6-7.8-7-7.8-6.5-9.8 1.2-13.2 5.4s-5.8 8.8 1.1 12.1 9.5 9.4 8.8 18.1c-1.5 19.5 14.9 30.2 32.5 22.1 5.9-2.7 11.1-6.6 16.8-9.7s12.8-8.4 18.1-1.3-1.2 12.8-5.9 17.4-9.3 7-13.9 10.4zM514.5 446.5l-7.7-7.8c-1.3-1.3-32.3-32.8-59.5-69.3-16.3-21.9-27.7-41-34.1-56.8-9.3-23.2-8.2-40.8 3.3-52.2 9.3-9.3 20.8-13.7 33.4-12.8 15.7 1.2 32.9 10.5 51.2 27.8a185.1 185.1 0 0 1 13.4 13.9 188.6 188.6 0 0 1 21.5-21.4c17.6-14.9 43.5-29.9 67.1-17.2a34.7 34.7 0 0 1 18.4 26.2c3.5 23.4-12.1 56.9-47.6 102.6a724.2 724.2 0 0 1-51.7 59.2zm-68-177.3c-5.5 0-10.2 2.1-14.6 6.5s-5.7 10.9 1.5 28.7c5.6 14.1 16.1 31.6 31.2 51.8 18.3 24.7 39 47.5 49.9 59.1 9.5-10 26.2-28.5 42.4-49.3 40.8-52.6 44.5-76.4 43.1-85.9-.7-4.8-2.9-7.9-7.3-10.3-12.7-6.8-30.1 4.1-42.4 14.5a194.1 194.1 0 0 0-27.1 28.6l-8.7 11.7-8.7-11.7c-8.6-11.6-35.7-42-57.6-43.6z"/></symbol><symbol id="airplane" viewBox="0 0 1080 1080"><circle cx="540" cy="540" r="449.6" fill="#cc6c5a"/><path fill="#fff" d="M541 585.4c-13.2 14.1-19 30.7-23.2 48-9.8 40.5-19.2 81.1-28.9 121.6-5.2 21.8-11.1 24.7-32.2 16.9-24.5-9.2-27.9-13.9-28.1-39.7-.4-62.8-1.3-125.6-1.1-188.5.1-18.1-6.7-29.3-23.1-37.5-25.7-12.9-51.2-26.5-75.2-42.2-13.2-8.6-24-21.5-34.6-33.6-6.5-7.4-8.6-17.4-2.9-26.9s14.5-12 23.9-10.2c17.6 3.4 36.1 5.8 52.1 13.1 27.4 12.6 53.5 28.1 79.6 43.4 11.2 6.5 20.5 6.8 31.9.4 56-31.4 112.3-62.2 168.7-93 7.7-4.2 15.8-8.1 24.3-10.2 17.2-4.4 36.6 5 45.2 20.4 5.2 9.2.4 15.6-6 21.2-19.8 17.8-39.8 35.3-59.6 53.1-26.1 23.4-53.7 45.4-73.5 76.2 1.9 1.4 3.9 3.3 6.2 4.8 31 19.4 62.1 38.5 92.9 58.2 5.7 3.6 9.4 3.3 14.5-.7 8.1-6.4 16.7-12.3 25.3-18s20.2-9 31.5-4.4c13.5 5.5 18.3 16.8 10.9 29.4-23.5 40.2-47.6 79.9-71.5 119.8-3.8 6.4-9 7.6-16.1 5-21.7-8.2-25.1-12.8-23.7-35.8.5-9.9 2.2-19.8 2.4-29.8 0-3.1-2.1-8-4.6-9.3-34.6-17.3-69.4-34.2-105.1-51.7z"/></symbol><symbol id="truck" viewBox="0 0 1080 1080"><circle cx="540" cy="540" r="449.6" fill="#cc6c5a"/><path fill="#fff" d="M261.6 358.6c6-12 16-16 29-16 93.1.2 186.2.1 279.4.2 21.7 0 28.8 7.3 28.8 29.5q.2 150.9 0 301.8c0 21.8-6.3 27.9-28.3 28h-83.4c-4.7-24.5-16.7-43.7-37.3-56.8-44.9-28.5-104.4-5.3-118.7 46.9-2.3 8.6-5.8 10.3-13.3 10-9.2-.4-18.5-.8-27.7.1-12.6 1.1-22-3.1-28.5-13.9zm381 343c-14.7-2.5-20.2-8.1-20.7-22.7-.5-16.6-.2-33.3-.2-50q0-82.4.1-164.8c0-25.5 5.6-31 30.8-31 29.5-.1 58.9.1 88.3-.1 11.8-.2 22 3.1 29 12.6 22.4 30.3 45.2 60.4 66.1 91.7 6.2 9.2 9 22.1 9.4 33.5 1.1 35.6.6 71.2.3 106.7-.2 20.6-23.8 33.9-41.8 23.8-1.9-1.1-3.4-4-3.8-6.3-6.1-36.4-41.9-63.5-80.4-62.1-36.5 1.3-65.3 26.3-75.8 66.9-.1.4-.5.7-1.3 1.8zm166-134.5c-1.5-4.4-1.9-8-3.7-10.7-17.1-24.4-34.3-48.8-51.9-72.9-2.1-2.8-6.4-5.5-9.8-5.6-17.8-.6-35.6-.3-53.3-.3v89.5z"/><path fill="#fff" d="M407.5 765.4c-29.1-.2-51.4-22.9-51.1-52.1s23-51.1 51-51.3 52.1 23.5 52.1 51.9-23.1 51.6-52 51.5zM774 713.5c.1 29.3-22.3 51.9-51.4 51.9s-52.2-23.4-52-51.7 23.7-51.2 51.2-51.7 52.1 23 52.2 51.5z"/><path fill="#cc6c5a" d="M323.1 449.2c4.6-6.9 9.2-13.8 13.9-20.6l24-35.2c3.5-5.1 8.1-6.1 11.6-2.4s3.5 9.2.1 14.2L352.4 435l-4.5 6.7c1.8.2 2.9.4 4 .4h144c4.8 0 8.1 1.7 9.9 7.2v5c-2.2 5.1-5.8 6.5-10.4 6.4H346.7c1.3 2.2 2.2 3.5 3.1 4.8 7.5 10.9 15.1 21.7 22.6 32.7 3.7 5.3 3.7 10.8.1 14.5s-8 2.6-11.6-2.6l-34.3-49.3a62.2 62.2 0 0 1-3.5-5.4zm198.5 105.5c-4.6 6.9-9.2 13.8-13.9 20.6-7.9 11.8-16 23.5-24 35.2-3.5 5.1-8.1 6.1-11.6 2.4s-3.5-9.3-.1-14.2l20.4-29.8 4.4-6.7a38.2 38.2 0 0 0-4-.4c-48 0-96-.1-144 .1-4.7 0-8.1-1.7-9.9-7.2v-5c2.3-5.2 5.8-6.5 10.4-6.5q71.7.3 143.3.2h5.5l-3.1-4.8-22.7-32.7c-3.7-5.3-3.7-10.8-.1-14.5s8-2.6 11.6 2.6l34.4 49.3c1.2 1.7 2.3 3.6 3.4 5.4z"/></symbol><symbol id="lock" viewBox="0 0 1080 1080"><circle cx="540" cy="540" r="449.6" fill="#cc6c5a"/><path fill="#fff" d="M536.6 487.3h143.5c11.4.3 16.8 5.7 16.8 16.9q.1 39.9.1 79.8v128.8c-.1 13-5.5 18.5-18.4 18.5H394.4c-13 0-18.3-5.6-18.3-18.6V506.6c0-14.4 4.9-19.2 19.3-19.2h141.2zm23.2 176.8c0-11.9.3-23.3-.1-34.8-.1-5.3 1.3-9 5.3-12.8 16.5-15.5 16.8-41.3 1.1-57.7a41.2 41.2 0 0 0-57.4-1.6c-16.5 15.3-18.2 41-2.6 57.1 6 6.1 7.8 11.9 7.3 19.7s-.1 16.7-.1 25c0 1.7.3 3.4.4 5.1zm-94.3-201.6h-59.4c0-4.5.1-8.5 0-12.6-.2-21.1.1-42 7.3-62.3 19.5-55.3 74.1-91 133.2-86.7 57.4 4.2 106.5 47.5 117.7 103.8a115.8 115.8 0 0 1 2.5 19.4c.4 12.5.1 25 .1 37.9h-59.1v-28.9c.2-37.2-24.1-66.3-60.7-72.7-39.6-6.9-79.7 25-81.5 65.2-.5 12.1-.1 24.2-.1 36.9z"/></symbol></svg>