<svg id="Layer_1" data-name="Layer 1" xmlns="http://www.w3.org/2000/svg" width="3.6in" height="3.6in" viewBox="0 0 256.3 256.3"><title>logo</title><rect width="256.3" height="256.32" fill="#cc6c5a"/><path d="M231.2,181.4V131.1c0-8-3.3-14.8-9.9-20.5a35.9,35.9,0,0,0-24-8.5H100.6a35.6,35.6,0,0,0-23.8,8.5c-6.5,5.7-9.8,12.5-9.8,20.5v30.8a10.7,10.7,0,0,1-7.4-2.7,8.4,8.4,0,0,1-3.2-6.5V64h68.9V44.7H56.4V0H33.9V152.7q0,11.9,9.6,20.1c6.4,5.6,14.2,8.4,23.5,8.4V212c0,8,3.3,14.8,9.8,20.4s14.5,8.5,23.8,8.5H231.2V221.3H100.6a11.2,11.2,0,0,1-7.6-2.7,8.4,8.4,0,0,1-3.2-6.6V181.4ZM89.8,131.1a8.3,8.3,0,0,1,3.2-6.6,11.2,11.2,0,0,1,7.6-2.7h96.7a11.4,11.4,0,0,1,7.6,2.7,8.3,8.3,0,0,1,3.2,6.6v30.6H89.8Z" fill="#fff" stroke="#fff" stroke-miterlimit="10" stroke-width="2.9"/></svg>