<svg height=".9in" viewBox="0 0 64.1 64.1" width=".9in" xmlns="http://www.w3.org/2000/svg"><path d="m0 0h64.1v64.08h-64.1z" fill="#cc6c5a"/><path d="m57.8 45.3v-12.5a6.3 6.3 0 0 0 -2.5-5.1 8.4 8.4 0 0 0 -6-2.2h-24.2a8.5 8.5 0 0 0 -5.9 2.2 6.6 6.6 0 0 0 -2.5 5.1v7.7a2.9 2.9 0 0 1 -1.8-.7 2.3 2.3 0 0 1 -.8-1.6v-22.2h17.2v-4.8h-17.2v-11.2h-5.6v38.2a6.5 6.5 0 0 0 2.4 5 8.4 8.4 0 0 0 5.8 2.1v7.7a6.6 6.6 0 0 0 2.5 5.1 8.9 8.9 0 0 0 5.9 2.1h32.7v-4.9h-32.7a2.8 2.8 0 0 1 -1.9-.7 2.1 2.1 0 0 1 -.8-1.6v-7.7zm-35.4-12.5a2.3 2.3 0 0 1 .8-1.7 3.4 3.4 0 0 1 1.9-.7h24.2a2.9 2.9 0 0 1 1.9.7 2 2 0 0 1 .8 1.7v7.6h-29.6z" fill="#fff" stroke="#fff" stroke-miterlimit="10" stroke-width=".73"/></svg>