<svg id="Layer_1" data-name="Layer 1" xmlns="http://www.w3.org/2000/svg" width="0.4in" height="0.4in" viewBox="0 0 32 32"><title>logo-32</title><rect width="32" height="32" fill="#cc6c5a"/><path d="M28.9,22.6V16.4a3.2,3.2,0,0,0-1.3-2.6,4.4,4.4,0,0,0-3-1h-12a4.4,4.4,0,0,0-3,1,3.4,3.4,0,0,0-1.2,2.6v3.8a1.7,1.7,0,0,1-1-.3c-.2-.3-.4-.5-.4-.8V8h8.6V5.6H7V0H4.2V19.1a3.3,3.3,0,0,0,1.2,2.5,4.4,4.4,0,0,0,3,1v3.9A3.2,3.2,0,0,0,9.6,29a4.4,4.4,0,0,0,3,1.1H28.9V27.6H12.6a1.7,1.7,0,0,1-1-.3.9.9,0,0,1-.4-.8V22.6ZM11.2,16.4a1.1,1.1,0,0,1,.4-.9,1.7,1.7,0,0,1,1-.3h12a1.7,1.7,0,0,1,1,.3,1.5,1.5,0,0,1,.4.9v3.8H11.2Z" fill="#fff" stroke="#fff" stroke-miterlimit="10" stroke-width="0.36"/></svg>