<svg id="Layer_1" data-name="Layer 1" xmlns="http://www.w3.org/2000/svg" width="0.2in" height="0.2in" viewBox="0 0 16 16"><title>logo-16</title><rect width="16" height="16" fill="#cc6c5a"/><path d="M14.4,11.3V8.2a1.8,1.8,0,0,0-.6-1.3,2.5,2.5,0,0,0-1.5-.5h-6a2.5,2.5,0,0,0-1.5.5,1.8,1.8,0,0,0-.6,1.3v1.9l-.5-.2a.5.5,0,0,1-.2-.4V4H7.8V2.8H3.5V0H2.1V9.5a1.8,1.8,0,0,0,.6,1.3,2.5,2.5,0,0,0,1.5.5v1.9a1.6,1.6,0,0,0,.6,1.3,2,2,0,0,0,1.5.5h8.1V13.8H6.3c-.2,0-.4,0-.5-.2a.5.5,0,0,1-.2-.4V11.3ZM5.6,8.2a.5.5,0,0,1,.2-.4l.5-.2h6l.5.2a.5.5,0,0,1,.2.4v1.9H5.6Z" fill="#fff" stroke="#fff" stroke-miterlimit="10" stroke-width="0.18"/></svg>